<?xml version="1.0" encoding="utf-8"?>
<!-- Generator: Adobe Illustrator 19.2.1, SVG Export Plug-In . SVG Version: 6.00 Build 0)  -->
<svg version="1.1" id="Camada_1" xmlns="http://www.w3.org/2000/svg" xmlns:xlink="http://www.w3.org/1999/xlink" x="0px" y="0px"
	 viewBox="0 0 961 1142.9" enable-background="new 0 0 961 1142.9" xml:space="preserve">
<path fill="#7DBB49" d="M480,34.5C243,34.5,50.2,227,50.2,465h0.1c0,341,312.7,575.2,404.7,636.9c7.6,5.1,16.9,7.3,24.9,7.3
	c8,0,17.4-2.1,25.1-7.3C597,1040.3,909.9,806,909.9,465h0.1C910,227,717,34.5,480,34.5z"/>
<g>
	
		<rect x="328" y="716.1" transform="matrix(0.9976 6.975647e-02 -6.975647e-02 0.9976 61.5823 -36.7799)" fill="#7DBB49" width="458.7" height="294.5"/>
	<path fill="#FFFFFF" d="M694.4,678.2C648.6,616.2,573.9,573.1,487.1,567c-0.4,0-0.8-0.1-1.2-0.1c-0.4,0-0.8-0.1-1.2-0.2
		c-86.8-6.1-166.8,26.1-220.7,81.1c-29.8,30.4-36.8,76.5-17.9,114.7c46.9,94.1,115.5,172.7,173.4,228.4c9.7,9.3,22,14.4,34.4,15.3
		c16.2,1.1,32.8-4.8,44.6-17.8c20.5-22.3,18-57.2-3.8-78.2c-53.3-51.5-116.5-124.4-155.9-209.4l374.2,26.2
		C711.3,709.7,705.1,692.7,694.4,678.2z"/>
</g>
<path fill="#FFFFFF" d="M677.5,304.9l-2.2-28.4c-0.4-5.6-5.3-9.7-10.9-9.3l-38.7,3l-1.1-13.4c-1.4-17.4-12.2-32.7-28.1-39.9
	l-111.2-49.8c-14.8-6.6-32-5.3-45.6,3.6l-102,66.5c-14.7,9.6-22.9,26.3-21.5,43.8l8.2,103.7c6.9,87.1,84.5,151.6,172,141.6
	c83.4-9.6,142.8-85.9,136.2-169.6l-3-38l38.7-3C673.8,315.4,678,310.5,677.5,304.9z"/>
</svg>
