<?xml version="1.0" encoding="utf-8"?>
<!-- Generator: Adobe Illustrator 19.2.1, SVG Export Plug-In . SVG Version: 6.00 Build 0)  -->
<svg version="1.1" id="Camada_1" xmlns="http://www.w3.org/2000/svg" xmlns:xlink="http://www.w3.org/1999/xlink" x="0px" y="0px"
	 viewBox="0 0 961 1142.9" enable-background="new 0 0 961 1142.9" xml:space="preserve">
<path fill="#7DBB49" d="M480,34.1c-237,0-429.8,192.5-429.8,430.5h0.1c0,341,312.7,575.5,404.7,637.1c7.6,5.1,16.9,7.4,24.9,7.4
	c8,0,17.4-2.3,25.1-7.4c92-61.6,404.8-296.1,404.8-637.1h0.1C910,226.5,717,34.1,480,34.1z"/>
<rect x="344.1" y="707.5" fill="#7DBB49" width="458.7" height="294.5"/>
<path fill="#FFFFFF" d="M697.1,660.3c-50-58.6-127.5-96.3-214.5-96.3c-0.4,0-0.8,0-1.2,0c-0.4,0-0.8,0-1.2,0
	c-87,0-164.6,37.7-214.5,96.3c-27.6,32.4-31.4,78.9-9.8,115.6c53.4,90.6,127.3,164.2,188.9,215.7c10.3,8.6,22.9,12.9,35.4,12.9
	c16.2,0,32.3-7.1,43.3-20.9c18.9-23.7,14-58.4-9.3-77.9C457.4,858,389.3,789.5,344.1,707.5h375.1
	C716.2,690.5,708.9,674.1,697.1,660.3z"/>
<path fill="#FFFFFF" d="M674.2,292.2l-4.2-28.2c-0.8-5.5-6-9.3-11.5-8.5l-38.4,5.7l-2-13.3c-2.6-17.3-14.4-31.8-30.8-37.8
	l-114.4-41.9c-15.3-5.6-32.3-3-45.3,6.8l-97.2,73.5c-13.9,10.6-21,27.9-18.4,45.2l15.4,102.8c12.9,86.4,94.9,145.3,181.5,129.2
	c82.5-15.3,136.5-95.7,124.1-178.6l-5.6-37.7l38.4-5.7C671.2,302.8,675,297.7,674.2,292.2z"/>
</svg>
