<?xml version="1.0" encoding="utf-8"?>
<!-- Generator: Adobe Illustrator 19.2.1, SVG Export Plug-In . SVG Version: 6.00 Build 0)  -->
<svg version="1.1" id="Camada_1" xmlns="http://www.w3.org/2000/svg" xmlns:xlink="http://www.w3.org/1999/xlink" x="0px" y="0px"
	 viewBox="0 0 961 1142.9" enable-background="new 0 0 961 1142.9" xml:space="preserve">
<path fill="#7DBB49" d="M480,34.5c-237,0-429.8,192.5-429.8,430.5h0.1c0,341,312.7,575.3,404.7,636.9c7.6,5.1,16.9,7.3,24.9,7.3
	c8,0,17.4-2.2,25.1-7.3c92-61.6,404.8-295.9,404.8-636.9h0.1C910,226.9,717,34.5,480,34.5z"/>
<g>
	
		<rect x="360.8" y="707.5" transform="matrix(0.9976 -6.975647e-02 6.975647e-02 0.9976 -58.189 43.2506)" fill="#7DBB49" width="458.7" height="294.5"/>
	<path fill="#FFFFFF" d="M700,652.5c-53.9-55-134-87.4-220.8-81.3c-0.4,0-0.8,0-1.2,0c-0.4,0-0.8,0-1.2,0
		c-86.8,6.1-161.6,49.1-207.3,111c-25.3,34.2-25.8,80.9-1.7,116c59.6,86.7,138.4,154.9,203.5,202c10.9,7.9,23.8,11.2,36.2,10.4
		c16.2-1.1,31.8-9.3,41.7-23.8c17.2-25,9.9-58.9-14.6-76.8c-60-43.6-132.7-106.8-183.5-185.5l374.2-26.2
		C721.2,681.6,712.7,665.4,700,652.5z"/>
</g>
<path fill="#FFFFFF" d="M669.9,279.6l-6.2-27.8c-1.2-5.5-6.6-8.9-12.1-7.7l-37.9,8.4l-2.9-13.1c-3.8-17.1-16.6-30.7-33.4-35.6
	l-117-33.8c-15.6-4.5-32.4-0.8-44.7,9.9L324,260c-13.2,11.5-19,29.3-15.2,46.4l22.5,101.5c18.9,85.3,104.8,138.4,190.1,116.3
	c81.2-21.1,129.5-105,111.3-186.9l-8.2-37.2l37.9-8.4C667.7,290.5,671.1,285.1,669.9,279.6z"/>
</svg>
