<?xml version="1.0" encoding="utf-8"?>
<!-- Generator: Adobe Illustrator 19.2.1, SVG Export Plug-In . SVG Version: 6.00 Build 0)  -->
<svg version="1.1" id="Camada_1" xmlns="http://www.w3.org/2000/svg" xmlns:xlink="http://www.w3.org/1999/xlink" x="0px" y="0px"
	 viewBox="0 0 961 1142.9" enable-background="new 0 0 961 1142.9" xml:space="preserve">
<path fill="#7DBB49" d="M480,34.5c-237,0-429.8,192.5-429.8,430.5h0.1c0,341,312.7,575.3,404.7,636.9c7.6,5.1,16.9,7.3,24.9,7.3
	c8,0,17.4-2.2,25.1-7.3c92-61.6,404.8-295.9,404.8-636.9h0.1C910,226.9,717,34.5,480,34.5z"/>
<g>
	
		<rect x="345.8" y="714" transform="matrix(0.9994 3.489950e-02 -3.489950e-02 0.9994 30.4086 -19.5484)" fill="#7DBB49" width="458.7" height="294.5"/>
	<path fill="#FFFFFF" d="M705.6,671.6c-47.9-60.3-124.1-100.9-211-103.9c-0.4,0-0.8-0.1-1.2-0.1c-0.4,0-0.8-0.1-1.2-0.1
		c-87-3-165.8,31.9-217.8,88.7c-28.7,31.4-34.2,77.8-13.8,115.2c50.2,92.4,121.5,168.6,181.3,222.2c10,9,22.5,13.7,35,14.1
		c16.2,0.6,32.6-6,44-19.4c19.7-23,16-57.6-6.5-77.9c-55.1-49.6-120.8-120.1-163.1-203.6l374.9,13.1
		C723.5,702.8,716.8,685.8,705.6,671.6z"/>
</g>
<path fill="#FFFFFF" d="M676,298.5l-3.2-28.3c-0.6-5.5-5.6-9.5-11.2-8.9l-38.6,4.4l-1.5-13.3c-2-17.4-13.3-32.3-29.5-38.9
	l-112.9-45.9c-15.1-6.1-32.2-4.2-45.5,5.2L334,242.9c-14.3,10.1-22,27.1-20,44.5l11.8,103.3c9.9,86.8,89.7,148.6,176.9,135.5
	c83-12.5,139.7-90.8,130.2-174.2l-4.3-37.9l38.6-4.4C672.6,309.1,676.6,304.1,676,298.5z"/>
</svg>
