<?xml version="1.0" encoding="utf-8"?>
<!-- Generator: Adobe Illustrator 19.2.1, SVG Export Plug-In . SVG Version: 6.00 Build 0)  -->
<svg version="1.1" id="Camada_1" xmlns="http://www.w3.org/2000/svg" xmlns:xlink="http://www.w3.org/1999/xlink" x="0px" y="0px"
	 viewBox="0 0 961 1142.9" enable-background="new 0 0 961 1142.9" xml:space="preserve">
<path fill="#7DBB49" d="M480,34.5C243,34.5,50.2,227,50.2,465h0.1c0,341,312.7,575.2,404.7,636.9c7.6,5.1,16.9,7.3,24.9,7.3
	c8,0,17.4-2.1,25.1-7.3C597,1040.3,909.9,806,909.9,465h0.1C910,227,717,34.5,480,34.5z"/>
<g>
	
		<rect x="338.2" y="710.9" transform="matrix(0.9994 -3.489950e-02 3.489950e-02 0.9994 -29.6018 20.3321)" fill="#7DBB49" width="458.7" height="294.5"/>
	<path fill="#FFFFFF" d="M684.5,659.6c-52-56.8-130.8-91.9-217.8-88.9c-0.4,0-0.8,0-1.2,0c-0.4,0-0.8,0-1.2,0
		c-87,3-163.2,43.4-211.1,103.7c-26.5,33.3-28.6,80-5.8,115.9c56.5,88.7,132.9,159.7,196.3,209c10.6,8.3,23.4,12.1,35.9,11.6
		c16.2-0.6,32.1-8.2,42.5-22.4c18-24.4,11.9-58.7-12-77.4c-58.4-45.6-128.9-111.6-176.9-191.9l374.9-13.1
		C704.6,689.3,696.7,673,684.5,659.6z"/>
</g>
<path fill="#FFFFFF" d="M672.1,285.9l-5.2-28c-1-5.5-6.3-9.1-11.8-8.1l-38.2,7.1l-2.4-13.2c-3.2-17.2-15.5-31.3-32.1-36.7L466.6,169
	c-15.4-5.1-32.4-1.9-45,8.3l-94.5,76.8c-13.6,11-20,28.6-16.8,45.8l18.9,102.2c15.9,85.9,99.9,141.9,185.9,122.8
	c81.9-18.2,133-100.4,117.7-182.9l-6.9-37.5l38.2-7.1C669.5,296.6,673.2,291.4,672.1,285.9z"/>
</svg>
