<?xml version="1.0" encoding="utf-8"?>
<!-- Generator: Adobe Illustrator 19.1.0, SVG Export Plug-In . SVG Version: 6.00 Build 0)  -->
<svg version="1.1" id="Camada_1" xmlns="http://www.w3.org/2000/svg" xmlns:xlink="http://www.w3.org/1999/xlink" x="0px" y="0px"
	 viewBox="0 0 1003.9 1003.9" enable-background="new 0 0 1003.9 1003.9" xml:space="preserve">
<g>
	<defs>
		<rect id="SVGID_1_" x="892.6" y="-802" width="794" height="768"/>
	</defs>
	<clipPath id="SVGID_2_">
		<use xlink:href="#SVGID_1_"  overflow="visible"/>
	</clipPath>
	
		<linearGradient id="SVGID_3_" gradientUnits="userSpaceOnUse" x1="-236.651" y1="-1506.8645" x2="690.1739" y2="-1506.8645" gradientTransform="matrix(0.9918 -0.1276 0.1276 0.9918 1063.8196 1027.0549)">
		<stop  offset="0" style="stop-color:#FFFFFF"/>
		<stop  offset="0.7351" style="stop-color:#FFFFFF"/>
		<stop  offset="1" style="stop-color:#EEEEEE"/>
	</linearGradient>
	<path clip-path="url(#SVGID_2_)" fill="url(#SVGID_3_)" d="M1475.4-78L835.7,4.4c-77.2,9.9-147.8-44.6-157.7-121.8l-82.3-639.8
		c-9.9-77.2,44.6-147.8,121.8-157.7l639.8-82.3c77.2-9.9,147.8,44.6,157.7,121.8l82.3,639.8C1607.1-158.5,1552.6-87.9,1475.4-78z"/>
</g>
<linearGradient id="SVGID_5_" gradientUnits="userSpaceOnUse" x1="-953.6604" y1="-592.5196" x2="-26.8355" y2="-592.5196" gradientTransform="matrix(0.9918 -0.1276 0.1276 0.9918 1063.8196 1027.0549)">
	<stop  offset="0" style="stop-color:#FFFFFF"/>
	<stop  offset="0.7351" style="stop-color:#FFFFFF"/>
	<stop  offset="1" style="stop-color:#EEEEEE"/>
</linearGradient>
<path fill="url(#SVGID_5_)" d="M881,920.4l-639.8,82.3C164,1012.7,93.4,958.2,83.5,881L1.2,241.2C-8.8,164,45.8,93.4,122.9,83.5
	L762.7,1.2c77.2-9.9,147.8,44.6,157.7,121.8l82.3,639.8C1012.7,839.9,958.2,910.5,881,920.4z"/>
</svg>
