<?xml version="1.0" encoding="utf-8"?>
<!-- Generator: Adobe Illustrator 19.2.1, SVG Export Plug-In . SVG Version: 6.00 Build 0)  -->
<svg version="1.1" id="Camada_1" xmlns="http://www.w3.org/2000/svg" xmlns:xlink="http://www.w3.org/1999/xlink" x="0px" y="0px"
	 viewBox="0 0 641 146" enable-background="new 0 0 641 146" xml:space="preserve">
<g>
	<path fill="#383A35" d="M166.2,45h-14c-1.6,0-3.1,0.8-3.1,2.4v55.1c0,1.6,1.6,2.5,3.1,2.5h14c18.8,0,27.5-9.9,27.5-30.3
		C193.6,54.2,184.9,45,166.2,45z M166.2,100H155V50h11.2c14.9,0,22,7.7,22,24.7C188.1,92,181.3,100,166.2,100z"/>
	<path fill="#383A35" d="M219.3,61c-12.8,0-20.1,8.2-20.1,22.5c0,14.8,7.3,22.6,21.1,22.6c9.3,0,14.3-4.4,15.3-5.2c0.5-0.5,1-1,1-2
		c0-1.4-1.1-2.4-2.6-2.4c-0.7,0-1.1,0.2-1.6,0.5c-2.8,2-6.2,4.1-12.1,4.1c-9.4,0-15.3-6-15.3-15.8V85h29.3c3.7,0,3.7-3.1,3.7-5.8
		C237.9,76.2,237,61,219.3,61z M232,80h-27l0-0.2c0.6-8.9,5.7-14,14.1-14C227.7,65.9,232,70.8,232,80L232,80z"/>
	<path fill="#383A35" d="M330,61c-12.8,0-20.1,8.2-20.1,22.5c0,14.8,7.3,22.6,21.1,22.6c9.3,0,14.3-4.4,15.3-5.2c0.5-0.5,1-1,1-2
		c0-1.4-1.1-2.4-2.6-2.4c-0.7,0-1.1,0.2-1.6,0.5c-2.8,2-6.1,4.1-11.9,4.1c-9.4,0-15.2-6-15.2-15.8V85h29c3.7,0,3.7-3.1,3.7-5.8
		C348.7,76.2,347.8,61,330,61z M343,80h-27.3l0-0.2c0.6-8.9,5.8-14,14.3-14C338.5,65.9,343,70.8,343,80L343,80z"/>
	<path fill="#383A35" d="M308.3,61.3c-1.4-0.6-3,0-3.6,1.5l-14.1,32.8l-14.1-32.8c-0.6-1.4-2.2-2.1-3.6-1.5
		c-1.4,0.6-2.1,2.2-1.5,3.6l16.6,38.6c0.1,0.2,0.2,0.4,0.3,0.6c0,0,0,0,0,0c0.1,0.1,0.2,0.3,0.3,0.4c0,0,0,0,0.1,0.1
		c0.1,0.1,0.2,0.2,0.3,0.3c0,0,0.1,0,0.1,0.1c0.1,0.1,0.2,0.1,0.3,0.2c0,0,0,0,0.1,0c0.1,0,0.1,0,0.2,0.1c0.1,0,0.2,0.1,0.3,0.1
		c0.1,0,0.1,0,0.2,0c0.1,0,0.2,0,0.3,0c0.1,0,0.2,0,0.3,0c0.1,0,0.1,0,0.2,0c0.1,0,0.2-0.1,0.3-0.1c0.1,0,0.1,0,0.2-0.1
		c0,0,0,0,0.1,0c0.1,0,0.2-0.1,0.3-0.2c0,0,0.1,0,0.1-0.1c0.1-0.1,0.2-0.2,0.3-0.3c0,0,0,0,0.1-0.1c0.1-0.1,0.2-0.2,0.3-0.4
		c0,0,0,0,0,0c0.1-0.2,0.2-0.4,0.3-0.6l16.6-38.6C310.3,63.5,309.7,61.9,308.3,61.3z"/>
	<path fill="#383A35" d="M263,61c-1.5,0-3,1.2-3,2.8v38.8c0,1.5,1.5,2.8,3,2.8s3-1.2,3-2.8V63.8C266,62.3,264.5,61,263,61z"/>
	<path fill="#383A35" d="M373.6,61c-0.1,0-0.2,0-0.3,0c-0.1,0,0,0-0.1,0c-5.1,0-11.2,2.2-13.2,5.7v-3c0-1.5-1.5-2.8-3-2.8
		c-1.5,0-3,1.2-3,2.8v38.8c0,1.5,1.5,2.8,3,2.8c1.5,0,3-1.2,3-2.8V80.4c0-9,5.7-13.8,13.7-13.8c0.1,0,0.1,0,0.2,0
		c1.4-0.1,2.5-1.3,2.5-2.7C376.4,62.3,375.1,61,373.6,61z"/>
	<path fill="#383A35" d="M419,61.3c-1.4-0.6-3,0-3.6,1.5l-14.1,32.8l-14.1-32.8c-0.6-1.4-2.2-2.1-3.6-1.5s-2.1,2.2-1.5,3.6
		l16.1,37.6l-5.2,11.9c0,0-1,1.9-3,2v0.1c-1,0-2.6,1.2-2.6,2.7c0,1.4,1.1,2.6,2.5,2.7c0.1,0,0.2,0,0.3,0c0.3,0,0.5,0,0.8,0
		c0,0,0.1,0,0.2,0c1.5-0.2,2.7-0.7,3.7-1.3c0,0,0.1-0.1,0.1-0.1c0.2-0.1,0.4-0.3,0.5-0.4c0,0,0.1-0.1,0.1-0.1c1-0.9,1.8-1.9,2.3-2.8
		c0.1-0.2,0.3-0.4,0.4-0.6l0.1-0.3c0.3-0.6,0.5-1.1,0.5-1.1l1.9-4.4l0,0l3.1-7.2c0-0.1,0-0.1,0.1-0.2l16.6-38.6
		C421,63.5,420.4,61.9,419,61.3z"/>
	<path fill="#383A35" d="M252,99.8L252,99.8c-2,0-3-0.8-3-2.8h0l0-49.8c0-1.5-1.5-2.8-3-2.8s-3,1.2-3,2.8v49.7c0,0,0.2,0,0.2,0
		c0,0,0.1,0,0.1,0.1c0,4.6,3.8,8.2,8.4,8.2c0.3,0,0.7-0.2,0.9-0.2h-0.9c1.5,0,2.9-1.1,2.9-2.6S253,99.8,252,99.8z"/>
	<path fill="#383A35" d="M620.8,78.7c-4.3-1.4-8-2.5-8-5.4c0-2.3,2-3.6,5.5-3.6c3.7,0,6.1,1.4,8.2,3c1,0.8,1.8,1.3,3,1.3
		c2.3,0,4.2-2,4.2-4.4c0-1.4-0.4-2-0.9-2.7c-2.7-3.4-8.5-5.7-14.6-5.7c-9.1,0-15,4.9-15,12.4c0,9.3,7.5,11.6,14,13.7
		c4.4,1.4,8.2,2.6,8.2,5.7c0,1.7-1.2,3.8-6.8,3.8c-4.8,0-7.8-1.9-10-3.8c-0.9-0.8-1.7-1.1-2.7-1.1c-2.3,0-4.2,2-4.2,4.4
		c0,1,0.3,1.9,1.1,2.8c2.4,3.1,8.5,6.5,15.9,6.5c10,0,16.5-5.1,16.5-13.1C635.2,83.3,627.6,80.9,620.8,78.7z"/>
	<path fill="#383A35" d="M550.1,72c2.7,0,4.8-2.3,4.8-5s-2.2-5-4.8-5H544V49.4c0-2.7-2.3-4.8-5-4.8c-2.7,0-5,2.2-5,4.8v42.7l0.1,0.1
		l0,0.1c0,6.9,5.4,12.4,12.3,12.9l0.3-0.2h3.4c2.7,0,4.8-1.8,4.8-4.5S552.7,96,550,96h-2.8l-0.6-0.2c-1.6-0.3-2.7-1.8-2.7-3.5V72
		H550.1z"/>
	<path fill="#383A35" d="M597.8,79.7c0-8.9-4.7-18.5-18-18.5c-12.3,0-19.4,8-19.4,22c0,14.6,7,22.3,20.2,22.3
		c8.5,0,13.2-3.9,14.5-5.1c1-0.9,1.5-2.1,1.5-3.4c0-2.3-1.9-4.3-4.1-4.3c-1.2,0-1.9,0.4-2.8,1c-2,1.3-4.8,2.9-9,2.9
		c-6.3,0-10.4-3.4-10.7-9.3l0-0.5h22.4C597.8,87,597.8,83.2,597.8,79.7z M570.2,79l0.1-0.7c0.7-5.5,4.3-8.8,9.5-8.8
		c3.7,0,8.1,2.3,8.5,8.8l0,0.7H570.2z"/>
	<path fill="#383A35" d="M510.1,61.2c-5.2,0-10.1,2.1-13.6,5.9c-1.6,2-1.5,4.8,0.3,6.6c0.9,0.9,2.1,1.4,3.4,1.4
		c1.3,0,2.5-0.5,3.4-1.4l0.5-0.5l0,0c1.6-1.4,3.7-2.2,5.9-2.2c4.2,0,7.9,3,8.8,7.2l0.2,0.8h-13.2c-7.2,0-14.4,4-14.4,12.8
		c0,8.2,5.8,13.7,14.5,13.7c8,0,11.7-3.3,12.4-4l0.7-0.7l0,0c0.1,2.5,2.4,4.6,5,4.6c2.7,0,5-2.2,5-4.8v-0.8v-8.1V80.1
		C529,69.7,520.4,61.2,510.1,61.2z M518.9,88.1c-0.2,3.8-3.3,9.6-10.7,9.6c-0.3,0-0.6-0.1-0.8-0.1c-4.3-0.3-6.6-2.1-6.6-5.5
		c0-3.4,2.3-5.1,6.2-5.1h12L518.9,88.1z"/>
	<path fill="#383A35" d="M480.9,44.6c-1.8,0-3.4,1-4.2,2.5l0,0l0,0c0,0,0,0.1,0,0.1L458.7,79l-17.8-32h0c-0.8-1-2.3-2.5-4.2-2.5
		c-2.7,0-4.7,2.3-4.7,5c0,0,0,0,0,0v51.2c0,2.7,1.8,4.8,4.5,4.8s4.5-2.2,4.5-4.8v-33l13.3,23.6c0.6,1,1.6,1.8,2.8,2.2l0.1,0
		c0.1,0,0.3,0.1,0.4,0.1l0.1,0c0.1,0,0.2,0,0.3,0c0.1,0,0.1,0,0.2,0c0.1,0,0.2,0,0.3,0c0.1,0,0.2,0,0.2,0s0.2,0,0.2,0
		c0.1,0,0.2,0,0.3,0c0.1,0,0.1,0,0.2,0c0.1,0,0.2,0,0.3-0.1l0.1,0c0.1,0,0.2-0.1,0.4-0.1l0.1,0c1.1-0.4,2.1-1.2,2.7-2.2L476,67.7v33
		c0,2.7,2.3,4.8,5,4.8s5-2.2,5-4.8V49.4c0,0-0.1,0-0.1,0C485.9,46.7,483.5,44.6,480.9,44.6z"/>
</g>
<path fill="#7DBB49" d="M58.7,3.4C28.4,3.4,4,28,4,58.2v0c0,43.4,39.8,73.3,51.5,81.2c1.9,1.3,4.4,1.4,6.4,0.1
	c3.5-2.3,9.5-6.6,16.2-12.6h22v-25.2c8-12.2,13.5-26.8,13.5-43.8h-0.1C113.5,28,88.9,3.4,58.7,3.4z M39.5,30.7l12.4-9.4
	c1.7-1.2,3.8-1.6,5.8-0.9l14.6,5.3c2.1,0.8,3.6,2.6,3.9,4.8l0.3,1.7l4.9-0.7c0.7-0.1,1.4,0.4,1.5,1.1l0.5,3.6
	c0.1,0.7-0.4,1.4-1.1,1.5l-4.9,0.7l0.7,4.8c1.6,10.6-5.3,20.8-15.8,22.8c-11,2.1-21.5-5.5-23.1-16.5l-2-13.1
	C36.8,34.2,37.7,32,39.5,30.7z M41.2,89c5.8,11,14.4,19.2,21.7,25.3c3,2.5,3.6,6.9,1.2,10c-1.4,1.8-3.4,2.7-5.5,2.7
	c-1.6,0-3.2-0.5-4.5-1.6c-7.8-6.6-17.3-15.9-24.1-27.5c-2.8-4.7-2.3-10.6,1.3-14.7c6.4-7.5,16.2-12.3,27.3-12.3c0.1,0,0.1,0,0.2,0
	c0.1,0,0.1,0,0.2,0c11.1,0,21,4.7,27.3,12.2c1.5,1.8,2.4,3.9,2.8,5.9H41.2z"/>
</svg>
