<?xml version="1.0" encoding="utf-8"?>
<!-- Generator: Adobe Illustrator 19.1.0, SVG Export Plug-In . SVG Version: 6.00 Build 0)  -->
<svg version="1.1" id="Camada_1" xmlns="http://www.w3.org/2000/svg" xmlns:xlink="http://www.w3.org/1999/xlink" x="0px" y="0px"
	 viewBox="0 0 306.3 83.6" enable-background="new 0 0 306.3 83.6" xml:space="preserve">
<g>
	<g opacity="0.6">
		<path d="M37.9,18.6c0-0.3,0.1-0.4,0.4-0.4h3.1c1.8,0,3,1.2,3,3c0,1.8-1.3,3-3,3h-2.2v3.1c0,0.3-0.1,0.4-0.4,0.4h-0.4
			c-0.3,0-0.4-0.1-0.4-0.4V18.6z M41.2,23c1.2,0,1.9-0.7,1.9-1.9s-0.7-1.8-1.8-1.8h-2V23H41.2z"/>
		<path d="M48.9,20.7c2.1,0,3.7,1.5,3.7,3.6c0,2.1-1.7,3.6-3.7,3.6c-2.1,0-3.7-1.5-3.7-3.6C45.2,22.2,46.8,20.7,48.9,20.7z
			 M48.9,26.7c1.3,0,2.4-1,2.4-2.5c0-1.4-1.1-2.4-2.4-2.4c-1.3,0-2.4,1-2.4,2.4C46.5,25.7,47.6,26.7,48.9,26.7z"/>
		<path d="M53.3,21.3c-0.1-0.3,0.1-0.5,0.4-0.5h0.4c0.3,0,0.4,0.1,0.5,0.4l1.3,4.4c0.1,0.4,0.2,0.7,0.2,0.7h0c0,0,0.1-0.4,0.2-0.7
			l1.4-4.4c0.1-0.3,0.2-0.4,0.5-0.4h0.4c0.3,0,0.4,0.1,0.5,0.4l1.4,4.4c0.1,0.4,0.2,0.7,0.2,0.7h0c0,0,0.1-0.4,0.2-0.7l1.3-4.4
			c0.1-0.3,0.2-0.4,0.5-0.4h0.4c0.3,0,0.5,0.2,0.4,0.5l-1.9,6c-0.1,0.3-0.2,0.4-0.5,0.4h-0.7c-0.3,0-0.4-0.1-0.5-0.4l-1.3-4
			c-0.1-0.4-0.2-0.7-0.2-0.7h0c0,0-0.1,0.4-0.2,0.7l-1.3,4c-0.1,0.3-0.2,0.4-0.5,0.4h-0.7c-0.3,0-0.4-0.1-0.5-0.4L53.3,21.3z"/>
		<path d="M67.9,20.7c1.9,0,3,1.4,3,3.3c0,0.2-0.2,0.5-0.5,0.5h-4.6c0.1,1.5,1.2,2.3,2.4,2.3c0.7,0,1.3-0.3,1.6-0.5
			c0.3-0.1,0.5-0.1,0.6,0.1l0.1,0.2c0.1,0.2,0.1,0.5-0.1,0.6c-0.4,0.3-1.2,0.7-2.3,0.7c-2.2,0-3.6-1.6-3.6-3.6
			C64.4,22.1,65.9,20.7,67.9,20.7z M69.5,23.5c0-1.2-0.8-1.8-1.7-1.8c-1,0-1.8,0.7-2,1.8H69.5z"/>
		<path d="M72.3,21.3c0-0.3,0.2-0.4,0.4-0.4h0.4c0.3,0,0.4,0.1,0.4,0.4v0.8c0,0.3,0,0.5,0,0.5h0c0.3-0.9,1.1-1.8,2.1-1.8
			c0.3,0,0.4,0.1,0.4,0.4v0.4c0,0.3-0.2,0.4-0.5,0.4c-1.3,0-2,1.5-2,2.8v2.4c0,0.3-0.1,0.4-0.4,0.4h-0.4c-0.3,0-0.4-0.1-0.4-0.4
			V21.3z"/>
		<path d="M79.9,20.7c1.9,0,3,1.4,3,3.3c0,0.2-0.2,0.5-0.5,0.5h-4.6c0.1,1.5,1.2,2.3,2.4,2.3c0.7,0,1.3-0.3,1.6-0.5
			c0.3-0.1,0.5-0.1,0.6,0.1l0.1,0.2c0.1,0.2,0.1,0.5-0.1,0.6c-0.4,0.3-1.2,0.7-2.3,0.7c-2.2,0-3.6-1.6-3.6-3.6
			C76.5,22.1,78,20.7,79.9,20.7z M81.6,23.5c0-1.2-0.8-1.8-1.7-1.8c-1,0-1.8,0.7-2,1.8H81.6z"/>
		<path d="M87,20.7c1.6,0,2.1,1.2,2.1,1.2h0c0,0,0-0.2,0-0.5v-2.8c0-0.3,0.1-0.4,0.4-0.4H90c0.3,0,0.4,0.1,0.4,0.4v8.7
			c0,0.3-0.1,0.4-0.4,0.4h-0.4c-0.3,0-0.4-0.1-0.4-0.4v-0.4c0-0.2,0-0.3,0-0.3h0c0,0-0.6,1.3-2.3,1.3c-1.9,0-3-1.5-3-3.6
			C83.9,22.1,85.2,20.7,87,20.7z M87.2,26.7c1,0,2-0.7,2-2.5c0-1.2-0.6-2.4-2-2.4c-1.1,0-2,0.9-2,2.4C85.3,25.8,86.1,26.7,87.2,26.7
			z"/>
		<path d="M95.8,18.6c0-0.3,0.1-0.4,0.4-0.4h0.4c0.3,0,0.4,0.1,0.4,0.4v2.8c0,0.3,0,0.6,0,0.6h0c0,0,0.6-1.3,2.2-1.3
			c1.8,0,3,1.5,3,3.6c0,2.2-1.3,3.6-3.1,3.6c-1.6,0-2.2-1.3-2.2-1.3h0c0,0,0,0.2,0,0.4v0.3c0,0.2-0.2,0.4-0.4,0.4h-0.3
			c-0.3,0-0.4-0.1-0.4-0.4V18.6z M99,26.7c1.1,0,2-0.9,2-2.4c0-1.5-0.8-2.5-1.9-2.5c-1,0-2,0.7-2,2.4C97.1,25.5,97.7,26.7,99,26.7z"
			/>
		<path d="M103.7,29.3c0.1,0.1,0.3,0.1,0.5,0.1c0.6,0,1-0.5,1.2-1l0.3-0.8l-2.7-6.3c-0.1-0.3,0-0.5,0.3-0.5h0.5
			c0.3,0,0.4,0.1,0.5,0.4l1.6,4.1c0.1,0.3,0.2,0.8,0.2,0.8h0c0,0,0.1-0.5,0.2-0.8l1.6-4.1c0.1-0.3,0.2-0.4,0.5-0.4h0.5
			c0.3,0,0.5,0.2,0.4,0.5l-3,7.6c-0.4,1.1-1.3,1.6-2.2,1.6c-0.4,0-0.7-0.1-1-0.2c-0.3-0.1-0.3-0.4-0.2-0.6l0.1-0.2
			C103.3,29.3,103.5,29.3,103.7,29.3z"/>
	</g>
	<g>
		<g>
			<linearGradient id="SVGID_2_" gradientUnits="userSpaceOnUse" x1="140.4995" y1="37.3187" x2="185.8526" y2="37.3187">
				<stop  offset="0" style="stop-color:#BF2626"/>
				<stop  offset="1" style="stop-color:#ED5454"/>
			</linearGradient>
			<circle fill="url(#SVGID_2_)" cx="163.2" cy="37.3" r="22.7"/>
			<circle fill="#FFFFFF" cx="162.6" cy="35.9" r="19.9"/>
			<ellipse fill="#CCCCCC" cx="162.6" cy="81.4" rx="3.4" ry="1.5"/>
			<g>
				<g>
					<path fill="#E13E3E" d="M185.5,53.4C185.5,53.4,185.5,53.4,185.5,53.4c3.7-4.8,5.8-10.9,5.8-17.4c0-16-12.9-28.9-28.9-28.9
						S133.5,20,133.5,36c0,6.4,2.1,12.3,5.6,17.1c0,0,0,0,0,0l0,0c0.5,0.7,1,1.3,1.5,1.9l21.9,26.4l20.9-25.6
						C184.2,55,184.8,54.3,185.5,53.4L185.5,53.4z M162.5,14.9c11.6,0,20.9,9.4,20.9,20.9s-9.4,20.9-20.9,20.9
						c-11.6,0-20.9-9.4-20.9-20.9S151,14.9,162.5,14.9z"/>
				</g>
				<path fill="#CA3939" d="M163.8,7v8.1c0,0-1.2,0-1.2,0c11.6,0,20.9,9.9,20.9,21.5s-9.3,21.5-20.9,21.5c0,0,1.2,0,1.2,0v23.1
					l-0.6,0l20.6-25.6c0.7-0.8,1.2-1.5,1.9-2.4l0,0c0,0,0,0,0,0c3.7-4.8,6.4-10.9,6.4-17.4C192.1,19.9,177.8,7,163.8,7z"/>
			</g>
			<g>
				<polygon fill="#1D8FB7" points="190.8,26.6 190.8,26.7 190.8,26.7 190.8,26.6 				"/>
				<path fill="#DBAD83" d="M181.8,28.7c0,10.6-8.6,19.3-19.3,19.3c-10.6,0-19.3-8.6-19.3-19.3c0-10.6,8.6-19.3,19.3-19.3
					C173.2,9.4,181.8,18,181.8,28.7"/>
				<path fill="#F6CA9F" d="M162.6,9.4L162.6,9.4c-10.7,0-19.3,8.6-19.3,19.3c0,10.6,8.6,19.3,19.3,19.3l0,0V9.4"/>
				<path fill="#693319" d="M162.6,9.4c-10.6,0-19.3,8.6-19.3,19.3c0,0.1,0,0.2,0,0.3c3.3-1.1,6.2-3.2,8.3-5.8c3,2.4,6.9,3.9,11,3.9
					c4.3,0,8.2-1.5,11.2-4c2,2.6,4.8,4.7,8,5.8c0-0.1,0-0.1,0-0.2C181.8,18,173.2,9.4,162.6,9.4"/>
				<path d="M159.6,30.6c0,1.1-0.9,1.9-1.9,1.9c-1.1,0-1.9-0.9-1.9-1.9c0-1.1,0.9-1.9,1.9-1.9C158.7,28.6,159.6,29.5,159.6,30.6
					L159.6,30.6z"/>
				<path d="M169.3,30.6c0,1.1-0.9,1.9-1.9,1.9c-1.1,0-1.9-0.9-1.9-1.9c0-1.1,0.9-1.9,1.9-1.9C168.4,28.6,169.3,29.5,169.3,30.6
					L169.3,30.6z"/>
				<path fill="#922D2E" d="M162.6,36.4c-4.4,0-8.4-1.1-11.5-2.9c0.1,6.2,5.2,11.3,11.5,11.3s11.3-5,11.5-11.3
					C171,35.3,167,36.4,162.6,36.4L162.6,36.4z"/>
				<path fill="#FFFFFF" d="M151.1,33.5c0,1.1,0.2,2.2,0.5,3.2c3.2,1.5,6.9,2.4,10.9,2.4c4,0,7.8-0.9,10.9-2.4
					c0.3-1,0.5-2.1,0.5-3.2c-3,1.8-7.1,2.9-11.5,2.9C158.2,36.4,154.2,35.3,151.1,33.5L151.1,33.5z"/>
				<polyline fill="#267728" points="151.6,47.6 152.3,48.9 144.8,57.8 143.2,57.4 151.6,47.6 				"/>
				<path fill="#329136" d="M141.5,43.3C141.5,43.3,141.5,43.3,141.5,43.3C141.5,43.3,141.5,43.3,141.5,43.3 M141.6,43.3
					C141.6,43.3,141.6,43.3,141.6,43.3C141.6,43.3,141.6,43.3,141.6,43.3 M141.6,43.3C141.6,43.3,141.6,43.3,141.6,43.3
					C141.6,43.3,141.6,43.3,141.6,43.3 M141.6,43.3C141.6,43.3,141.6,43.3,141.6,43.3C141.6,43.3,141.6,43.3,141.6,43.3 M141.6,43.2
					C141.6,43.2,141.6,43.2,141.6,43.2C141.6,43.2,141.6,43.2,141.6,43.2 M141.7,43.2C141.7,43.2,141.7,43.2,141.7,43.2
					C141.7,43.2,141.7,43.2,141.7,43.2 M141.7,43.2C141.7,43.2,141.7,43.2,141.7,43.2C141.7,43.2,141.7,43.2,141.7,43.2 M141.7,43.2
					C141.7,43.2,141.7,43.2,141.7,43.2C141.7,43.2,141.7,43.2,141.7,43.2 M141.7,43.2C141.7,43.2,141.7,43.2,141.7,43.2
					C141.7,43.2,141.7,43.2,141.7,43.2 M141.8,43.2C141.8,43.2,141.8,43.2,141.8,43.2C141.8,43.2,141.8,43.2,141.8,43.2 M141.8,43.2
					C141.8,43.2,141.8,43.2,141.8,43.2C141.8,43.2,141.8,43.2,141.8,43.2 M141.8,43.2C141.8,43.2,141.9,43.2,141.8,43.2
					C141.9,43.2,141.8,43.2,141.8,43.2 M141.9,43.2C141.9,43.2,141.9,43.2,141.9,43.2C141.9,43.2,141.9,43.2,141.9,43.2 M141.9,43.2
					C141.9,43.2,141.9,43.2,141.9,43.2C141.9,43.2,141.9,43.2,141.9,43.2 M141.9,43.2C141.9,43.2,141.9,43.2,141.9,43.2
					C141.9,43.2,141.9,43.2,141.9,43.2 M141.9,43.2C141.9,43.2,142,43.2,141.9,43.2C142,43.2,141.9,43.2,141.9,43.2 M142,43.2
					C142,43.2,142,43.2,142,43.2C142,43.2,142,43.2,142,43.2 M142,43.2C142,43.2,142,43.2,142,43.2C142,43.2,142,43.2,142,43.2
					 M142,43.2C142,43.2,142,43.2,142,43.2C142,43.2,142,43.2,142,43.2 M142,43.2C142,43.2,142,43.2,142,43.2
					C142,43.2,142,43.2,142,43.2 M142.1,43.1C142.1,43.1,142.1,43.1,142.1,43.1C142.1,43.1,142.1,43.1,142.1,43.1 M142.1,43.1
					c0.1,0,0.2,0,0.2,0C142.2,43.1,142.2,43.1,142.1,43.1 M142.3,43.1C142.3,43.1,142.3,43.1,142.3,43.1
					C142.3,43.1,142.3,43.1,142.3,43.1 M142.3,43.1C142.4,43.1,142.4,43.1,142.3,43.1C142.4,43.1,142.4,43.1,142.3,43.1 M142.4,43.1
					c0.1,0,0.3,0,0.4-0.1C142.6,43,142.5,43.1,142.4,43.1 M142.8,43c0.1,0,0.2,0,0.3,0C143,43,142.9,43,142.8,43 M143.1,43
					C143.1,43,143.1,43,143.1,43C143.1,43,143.1,43,143.1,43 M143.1,43C143.1,43,143.1,43,143.1,43C143.1,43,143.1,43,143.1,43
					 M143.1,43C143.1,43,143.1,43,143.1,43C143.1,43,143.1,43,143.1,43 M143.1,43C143.1,43,143.1,43,143.1,43
					C143.1,43,143.1,43,143.1,43 M143.2,43C143.2,43,143.2,43,143.2,43C143.2,43,143.2,43,143.2,43 M143.2,43
					C143.2,43,143.2,43,143.2,43C143.2,43,143.2,43,143.2,43 M143.2,43C143.2,43,143.2,43,143.2,43C143.2,43,143.2,43,143.2,43
					 M143.2,43C143.2,43,143.2,43,143.2,43C143.2,43,143.2,43,143.2,43 M143.3,43C143.3,43,143.3,43,143.3,43
					C143.3,43,143.3,43,143.3,43 M143.3,43C143.3,43,143.3,43,143.3,43C143.3,43,143.3,43,143.3,43 M143.3,43
					C143.3,43,143.3,43,143.3,43C143.3,43,143.3,43,143.3,43 M143.3,43C143.3,43,143.3,43,143.3,43C143.3,43,143.3,43,143.3,43"/>
				<path fill="#804934" d="M162.6,9.4L162.6,9.4c-10.6,0-19.3,8.6-19.3,19.3c0,0.1,0,0.2,0,0.3c3.3-1.1,6.2-3.2,8.3-5.8
					c3,2.4,6.8,3.9,11,3.9V9.4"/>
				<path fill="#57AD59" d="M163.6,1.6c0.1-0.1,0.1-0.3,0.1-0.5c0-0.6-0.5-1.1-1.1-1.1c-0.6,0-1.1,0.5-1.1,1.1c0,0.2,0,0.4,0.1,0.5
					c-10.1,0.5-18.1,8.4-18.1,19.1h38.1C181.6,10,173.6,2.1,163.6,1.6"/>
				<path fill="#339138" d="M181.9,21c0-0.4-0.3-0.8-0.8-0.8h-37.2c-0.4,0-0.8,0.4-0.8,0.8c0,0.4,0.3,0.6,0.7,0.6
					c7.1,2.6,11.3,3,17.7,3h0.1c6.3,0,13.3-0.5,19.5-3C181.6,21.5,181.9,21.4,181.9,21"/>
				<path fill="#E5E5E4" d="M180.6,21.8C180.6,21.8,180.6,21.8,180.6,21.8c0.2-0.1,0.4-0.2,0.6-0.3c0.1,0,0.2,0,0.3,0
					c-0.1,0.1-0.2,0.1-0.4,0.1C181,21.7,180.8,21.8,180.6,21.8"/>
				<path fill="#C59B76" d="M172.5,23.9c0.1,0,0.1-0.1,0.2-0.1c0.5-0.1,1.1-0.2,1.6-0.3c0,0,0,0,0.1,0.1
					C173.8,23.7,173.2,23.8,172.5,23.9"/>
				<path fill="#5D2E17" d="M162.6,24.8v-0.2c3.3,0,6.7-0.2,10.2-0.7c-0.1,0-0.1,0.1-0.2,0.1C169.1,24.5,165.7,24.7,162.6,24.8
					 M174.4,23.6C174.3,23.6,174.3,23.6,174.4,23.6c2.1-0.5,4.2-1,6.2-1.8c0,0,0,0,0,0C178.6,22.6,176.5,23.2,174.4,23.6"/>
				<path fill="#329136" d="M181.6,19.9C181.6,19.9,181.6,19.9,181.6,19.9c-0.4-9.2-6.6-16.1-15-17.9c0.4,0,0.7,0.1,1.1,0.2
					C175.7,4.3,181.5,11.3,181.6,19.9"/>
				<path opacity="0.2" d="M181.6,20.4c-0.1-0.1-0.3-0.2-0.5-0.2h-18.6v-0.1V0c0.5,0.1,1.1,0.5,1.1,1.1c0,0.2,0,0.3,0,0.4
					c0,0,0,0,0,0c0,0,0,0.1,0,0.1c1.1,0.1,2.1,0.2,3.1,0.4c8.3,1.7,14.6,8.7,14.9,17.9c0,0.1,0,0.2,0,0.3h0c0,0,0,0,0,0
					C181.6,20.3,181.6,20.3,181.6,20.4"/>
				<path opacity="0.2" d="M162.6,24.6v-4.3v-0.1h18.6c0.2,0,0.3,0.1,0.5,0.2c0,0,0.1,0.1,0.1,0.1c0.1,0.2,0.1,0.2,0.1,0.3
					c0,0.3-0.2,0.5-0.4,0.7c-0.1,0-0.2,0-0.3,0c-0.2,0.1-0.4,0.2-0.6,0.2l0,0c-2,0.8-4.1,1.3-6.3,1.7c-0.5,0.1-1.1,0.2-1.6,0.3
					C169.3,24.4,165.8,24.5,162.6,24.6"/>
				<g>
					<polygon fill="#F6CA9F" points="182.1,39.9 197.8,48.4 181.7,55 165.6,46.1 					"/>
					<polygon fill="#D2A06F" points="165.8,46.1 165.8,61.2 180.8,70.8 180.8,55 					"/>
					<polygon fill="#91633E" points="181.3,70.8 197.8,64.3 197.8,48.4 181.6,55 					"/>
					<polygon fill="#F9EBDE" points="187,42.7 170.4,49.1 174,51.1 190.6,44.6 					"/>
					<polygon fill="#ADA196" points="169.8,49.1 169.8,53.4 173.7,55.5 173.6,51.1 					"/>
					<g>
						<path fill-rule="evenodd" clip-rule="evenodd" fill="#693319" d="M194.6,60.3C194.6,60.3,194.7,60.3,194.6,60.3
							C194.7,60.3,194.7,60.3,194.6,60.3L194.6,60.3C194.7,60.3,194.7,60.3,194.6,60.3L194.6,60.3c0,0.1,0,0.1,0,0.2c0,0,0,0,0,0
							l0,0c0,0,0,0,0,0l0,0c0,0-0.1,0-0.1,0.1c0,0,0,0,0,0l0,0c0,0,0,0,0,0l0,0c0,0,0,0,0,0l0-0.1c0,0,0,0,0,0v0c0,0,0,0,0,0l0,0
							L194.6,60.3L194.6,60.3z"/>
						<path fill-rule="evenodd" clip-rule="evenodd" fill="#693319" d="M195.1,60.3c0,0.1,0,0.2,0,0.2l0,0c0,0,0,0,0,0l0,0
							c0,0,0,0,0,0c0,0-0.1,0-0.1,0c0,0,0,0,0,0c0,0,0,0,0,0c0,0,0,0,0,0c0-0.1,0-0.1,0-0.2c0,0,0,0,0,0
							C195,60.4,195.1,60.4,195.1,60.3C195.1,60.3,195.1,60.3,195.1,60.3L195.1,60.3C195.1,60.3,195.1,60.3,195.1,60.3
							C195.1,60.3,195.1,60.3,195.1,60.3z"/>
						<path fill-rule="evenodd" clip-rule="evenodd" fill="#693319" d="M195.6,60.5L195.6,60.5C195.6,60.5,195.6,60.5,195.6,60.5
							l0,0.2c0,0,0,0,0,0l0,0.1c0,0,0,0,0,0l-0.1,0.1l0,0c0,0,0,0,0,0l0,0c0,0,0,0,0,0c0,0-0.1,0-0.1-0.1v0c0,0,0,0,0,0c0,0,0,0,0,0
							v0C195.5,60.6,195.5,60.5,195.6,60.5C195.5,60.5,195.5,60.5,195.6,60.5C195.6,60.5,195.6,60.5,195.6,60.5z"/>
						<g>
							<path fill-rule="evenodd" clip-rule="evenodd" fill="#693319" d="M194.2,60.8L194.2,60.8C194.3,60.7,194.3,60.7,194.2,60.8
								C194.3,60.7,194.3,60.7,194.2,60.8C194.3,60.7,194.3,60.7,194.2,60.8c0.1,0,0.1,0.1,0.1,0.2l0,0c0,0,0,0,0,0c0,0,0,0,0,0
								c0,0-0.1,0-0.1,0.1c0,0,0,0,0,0c0,0,0,0,0,0c0,0,0-0.1,0-0.1C194.2,60.9,194.2,60.8,194.2,60.8z"/>
							<path fill-rule="evenodd" clip-rule="evenodd" fill="#693319" d="M193,62.3c0.1-0.1,0.2-0.2,0.3-0.3c0,0,0,0,0,0
								c0.1-0.1,0.3-0.2,0.4-0.3c0.1-0.1,0.3-0.1,0.4-0.2l0-0.1l0,0c0,0,0,0,0,0l0.1-0.1l0,0c0,0,0,0,0,0l0,0c0,0,0.1,0,0.1,0
								c0,0,0,0,0,0.1c0.2-0.1,0.4-0.1,0.5-0.2c0.2,0,0.4,0,0.5,0c0,0,0,0,0,0c0.1,0,0.1,0,0.2,0c0,0,0,0,0,0
								c0.2,0.1,0.3,0.2,0.3,0.3c0,0,0,0.1,0,0.1c0,0,0,0.1,0,0.1c0,0,0,0,0,0l0,0c0,0,0,0,0,0l0,0c0,0,0,0,0,0l0,0
								c-0.1,0-0.2,0-0.3,0c-0.1,0-0.2,0.1-0.3,0.2c0,0,0,0,0,0l0,0l0,0c0,0,0,0,0,0c-0.1,0-0.2,0-0.3,0c-0.1,0-0.2,0.1-0.3,0.2l0,0
								c0,0,0,0,0,0c0,0,0,0,0,0c-0.1,0-0.2,0-0.3,0.1c0,1,0,1.5,0,1.7v0c0,0.1,0,0.1,0,0.2c0,0.1-0.1,0.1-0.1,0.1
								c-0.1,0.1-0.2,0.1-0.3,0.2c-0.1,0-0.2,0-0.3,0c0,0,0,0,0,0l0,0c-0.1,0-0.1-0.1-0.1-0.2c0,0,0,0,0,0l0,0c0,0,0,0,0,0l0.1,0
								c0,0,0,0,0,0l0,0c0,0,0,0,0,0c0,0,0,0,0,0c0,0,0,0.1,0,0.1c0,0,0.1,0,0.1,0l0,0c0.1,0,0.2-0.1,0.3-0.2c0,0,0-0.1,0-0.1
								c0-0.1,0-0.1,0-0.1l0-1.6c0,0-0.1,0-0.1,0.1c-0.1,0-0.1,0.1-0.1,0.1l0,0c0,0,0,0,0,0c0,0,0,0,0,0l0,0l-0.1,0
								c-0.1,0-0.2,0-0.3,0.1l0,0c-0.1,0-0.2,0.1-0.3,0.2l0,0c0,0,0,0,0,0c0,0,0,0,0,0l0,0c-0.1,0-0.2,0-0.3,0
								c-0.1,0-0.2,0.1-0.3,0.2l0,0c0,0,0,0,0,0l0,0c0,0,0,0,0,0l0,0c0,0,0,0,0,0v0c0,0,0,0,0,0c0,0,0-0.1,0-0.1c0,0,0,0,0,0
								c0-0.1,0.1-0.2,0.1-0.3c0,0,0,0,0,0l0.1-0.1c0,0,0,0,0,0C192.9,62.5,192.9,62.4,193,62.3z"/>
							<path fill-rule="evenodd" clip-rule="evenodd" fill="#693319" d="M193.8,61.3c0,0,0,0.1,0,0.1v0c0,0.1,0,0.1,0,0.1
								c0,0,0,0,0,0c0,0,0,0,0,0c0,0,0,0,0,0c0,0-0.1,0-0.1,0c0,0,0,0,0,0l0,0c0,0,0,0,0,0c0,0,0,0,0,0c0,0,0,0,0,0v0c0,0,0,0,0,0v0
								C193.7,61.4,193.7,61.3,193.8,61.3C193.8,61.2,193.8,61.2,193.8,61.3C193.8,61.2,193.8,61.2,193.8,61.3L193.8,61.3
								C193.8,61.2,193.8,61.3,193.8,61.3z"/>
							<path fill-rule="evenodd" clip-rule="evenodd" fill="#693319" d="M194.9,60.8L194.9,60.8c0,0.1,0,0.1,0,0.1v0
								c0,0,0,0.1,0,0.1l0,0c0,0,0,0,0,0c0,0,0,0.1-0.1,0.1l0,0c0,0-0.1,0-0.1,0c0,0,0,0,0,0c0,0,0,0,0,0
								C194.7,61,194.7,60.9,194.9,60.8C194.8,60.8,194.8,60.8,194.9,60.8L194.9,60.8L194.9,60.8C194.9,60.7,194.9,60.7,194.9,60.8
								L194.9,60.8C194.9,60.7,194.9,60.7,194.9,60.8C194.9,60.7,194.9,60.8,194.9,60.8z"/>
							<path fill-rule="evenodd" clip-rule="evenodd" fill="#693319" d="M195.6,59.2l-3.7,1.8c0,0,0.5,0,0.5,0c0,0,0.5,0,0.5,0v4.8
								c0,0-0.3,0-0.3,0c0,0-0.1,0-0.1,0l4.1-1.8c0,0-0.8,0-0.8,0c0,0-0.8,0-0.8,0v-4.8L195.6,59.2z M194.8,63.8l-2,1.6v-4.3l2-1.6
								V63.8z"/>
							<path fill-rule="evenodd" clip-rule="evenodd" fill="#693319" d="M191.2,61.2V66c0,0,0,0,0,0c0,0,0,0,0,0l-4.1,1.8
								c0,0,0,0,0,0c0,0,0,0,0,0V63c0,0,0,0,0,0c0,0,0,0,0,0L191.2,61.2C191.2,61.2,191.2,61.2,191.2,61.2
								C191.2,61.2,191.2,61.2,191.2,61.2z M189.9,62.2v1.9c0,0,0,0.1,0,0.1c0,0.1,0,0.1-0.1,0.2c0,0.1-0.1,0.1-0.1,0.2
								c-0.1,0.1-0.2,0.2-0.3,0.2c-0.1,0-0.2,0.1-0.3,0.1c0,0.1,0,0.3,0,0.6c0,0.3,0,0.5,0,0.6c0.1,0,0.2-0.1,0.3-0.1
								c0.2-0.1,0.3-0.1,0.3-0.1c0,0,0,0,0,0c0,0,0,0,0,0l0,0.2c0,0,0,0,0,0c0,0,0,0,0,0l-1.5,0.6c0,0,0,0,0,0c0,0,0,0,0,0v-0.2
								c0,0,0,0,0,0c0,0,0,0,0,0l0.6-0.3l0-1.3c-0.1,0-0.2,0.1-0.3,0.1c-0.1,0-0.2,0-0.3,0c0,0,0,0,0,0c0,0-0.1,0-0.1-0.1
								c0,0,0-0.1,0-0.2v0c0-0.3,0-0.6,0-1c0-0.5,0-0.8,0-1c0,0,0,0,0,0c0,0,0,0,0,0C188.6,62.7,189.2,62.5,189.9,62.2
								C189.9,62.2,189.9,62.2,189.9,62.2C189.9,62.2,189.9,62.2,189.9,62.2z M187.2,67.5l3.7-1.6v-4.3l-3.7,1.6V67.5z"/>
							<path fill-rule="evenodd" clip-rule="evenodd" fill="#693319" d="M183.1,64.8L183.1,64.8l0.7,1.1c0,0,0,0,0,0v0c0,0,0,0,0,0
								l0,0c0,0,0,0,0,0l-0.4,0.2v2.3c0,0,0,0,0,0c0,0,0,0,0,0l-0.5,0.2c0,0,0,0,0,0c0,0,0,0,0,0v-2.3l-0.4,0.2c0,0,0,0,0,0l0,0
								c0,0,0,0,0,0v0c0,0,0,0,0,0L183.1,64.8L183.1,64.8C183.1,64.8,183.1,64.8,183.1,64.8C183.1,64.8,183.1,64.8,183.1,64.8
								C183.1,64.8,183.1,64.8,183.1,64.8z M181.8,65l4.1-1.8c0,0,0,0,0,0c0,0,0,0,0,0v4.8c0,0,0,0,0,0c0,0,0,0,0,0l-4.1,1.8
								c0,0,0,0,0,0c0,0,0,0,0,0L181.8,65C181.8,65.1,181.8,65.1,181.8,65C181.8,65.1,181.8,65.1,181.8,65z M184.5,64.2L184.5,64.2
								l0.7,1.1c0,0,0,0,0,0v0c0,0,0,0,0,0l0,0c0,0,0,0,0,0l-0.4,0.2v2.3c0,0,0,0,0,0c0,0,0,0,0,0l-0.5,0.2c0,0,0,0,0,0c0,0,0,0,0,0
								v-2.3l-0.4,0.2c0,0,0,0,0,0l0,0c0,0,0,0,0,0v0c0,0,0,0,0,0L184.5,64.2L184.5,64.2C184.5,64.2,184.5,64.2,184.5,64.2
								C184.5,64.2,184.5,64.2,184.5,64.2C184.5,64.2,184.5,64.2,184.5,64.2z M182,65.2v4.3l3.7-1.6v-4.3L182,65.2z M185.4,68
								C185.4,68,185.4,68,185.4,68C185.4,68,185.4,68,185.4,68l-3,1.3c0,0,0,0,0,0c0,0,0,0,0,0l0-0.3c0,0,0,0,0,0c0,0,0,0,0,0
								l3-1.3c0,0,0,0,0,0c0,0,0,0,0,0L185.4,68z"/>
						</g>
					</g>
					<line opacity="0.4" fill="none" stroke="#91633E" stroke-miterlimit="10" x1="190.6" y1="44.6" x2="174" y2="51.1"/>
					<line fill="none" stroke="#91633E" stroke-miterlimit="10" x1="174" y1="51.1" x2="174" y2="55.5"/>
					<path opacity="0.4" fill="#91633E" d="M193.7,48.8l-3.1,1.2c-0.6,0.3-1.5,0.2-2-0.1l-0.6-0.4c-0.5-0.3-0.3-0.8,0.3-1l3.1-1.2
						c0.6-0.3,1.5-0.2,2,0.1l0.6,0.4C194.4,48.1,194.3,48.5,193.7,48.8z"/>
					<path fill="#F9EBDE" d="M193.7,48.6l-3.1,1.2c-0.6,0.3-1.5,0.2-2-0.1l-0.6-0.4c-0.5-0.3-0.3-0.8,0.3-1l3.1-1.2
						c0.6-0.3,1.5-0.2,2,0.1l0.6,0.4C194.4,47.8,194.3,48.3,193.7,48.6z"/>
					<g>
						<polygon fill-rule="evenodd" clip-rule="evenodd" fill="#91633E" points="170.7,61 174.1,62.9 174.1,66.8 170.7,64.6 						
							"/>
						<polygon fill-rule="evenodd" clip-rule="evenodd" fill="#ADA196" points="170.7,61 173.9,62.8 173.9,66.6 170.7,64.6 						
							"/>
						<g>
							<path fill-rule="evenodd" clip-rule="evenodd" fill="#2376B8" d="M174.3,58l-8-4.6c-0.2-0.1-0.2,0-0.2,0.1v2
								c0,0.2,0.1,0.3,0.2,0.4l8,4.6c0.2,0.1,0.2,0,0.2-0.1v-2C174.5,58.3,174.5,58.1,174.3,58z M166,56.5v3.2
								c0,0.2,0.1,0.3,0.2,0.4l8,4.6c0.2,0.1,0.2,0,0.2-0.1v-3.2c0-0.2-0.1-0.3-0.2-0.4l-8-4.6C166.1,56.3,166,56.3,166,56.5z
								 M175.1,57.9v7.7l-9.5-5.5v-7.7L175.1,57.9z"/>
							<path fill-rule="evenodd" clip-rule="evenodd" fill="#FFFFFF" d="M174.3,58c0.2,0.1,0.2,0.2,0.2,0.4v2c0,0.2-0.1,0.2-0.2,0.1
								l-8-4.6c-0.2-0.1-0.2-0.2-0.2-0.4v-2c0-0.2,0.1-0.2,0.2-0.1L174.3,58z M166.4,57v0.3l7.8,4.5v-0.3L166.4,57z M166.4,57.8v0.3
								l7.8,4.5v-0.3L166.4,57.8z M174.1,58.6v-0.3l-7.8-4.5v0.3L174.1,58.6z M174.1,59.4v-0.3l-7.8-4.5v0.3L174.1,59.4z M166,56.5
								c0-0.2,0.1-0.2,0.2-0.1l8,4.6c0.2,0.1,0.2,0.2,0.2,0.4v3.2c0,0.2-0.1,0.2-0.2,0.1l-8-4.6c-0.2-0.1-0.2-0.2-0.2-0.4V56.5z
								 M166.4,59.4v0.3l7.8,4.5v-0.3L166.4,59.4z M166.4,58.6v0.3l7.8,4.5v-0.3L166.4,58.6z M166.4,55.3v0.3l7.8,4.5v-0.3
								L166.4,55.3z"/>
							<path fill-rule="evenodd" clip-rule="evenodd" fill="#999999" d="M174.1,59.4l-7.8-4.5v-0.3l7.8,4.5V59.4z M174.1,58.6
								l-7.8-4.5v-0.3l7.8,4.5V58.6z M166.4,57.8l7.8,4.5v0.3l-7.8-4.5V57.8z M166.4,57l7.8,4.5v0.3l-7.8-4.5V57z M166.4,55.3
								l7.8,4.5v0.3l-7.8-4.5V55.3z M166.4,58.6l7.8,4.5v0.3l-7.8-4.5V58.6z M166.4,59.4l7.8,4.5v0.3l-7.8-4.5V59.4z"/>
						</g>
					</g>
				</g>
				<path fill="#F6CA9F" d="M182.9,55.8c-0.6,0.1-1.2,0.3-1.7,0.5c0.6-1,1.1-1.9,0.9-2.8c-0.3-1.5-2.1-1.7-2.6-0.6
					c-1,1.4-2.1,2.4-3.4,2.9c-9.4,0.4-20.3-2.2-23.8-7l-7.5,8.8c9.5,6.8,19,9.1,29.8,8.1c3.1,1,6.5,0.4,7.9-0.8
					c0.6-0.8,0.6-1.6-1.1-2c-0.1,0-0.2-0.1-0.3-0.1c1.4-0.3,2.5-0.7,3-1.1c1.4-1,0.9-2.5-1.6-2.2c-0.4,0-0.7,0-1.1,0
					c1.4-0.6,2.5-1.3,3.5-2.3C185.8,56.1,184.7,55.4,182.9,55.8L182.9,55.8z"/>
				<path fill="#57AD59" d="M143.2,57.4l8.4-9.8c-1.1-3-4.7-6-8.2-5.9c-4.3,0.2-7.6,3.8-7.5,8C136,52.8,139.2,56.2,143.2,57.4"/>
				<path opacity="0.2" d="M147.4,52.4l-9.7-8c1-1.2,2.3-2,3.8-2.5c0,0,0,0,0,0c0,0,0,0,0,0c0,0,0,0,0,0c0,0,0,0,0,0c0,0,0,0,0,0
					c0,0,0,0,0,0c0,0,0,0,0,0c0,0,0,0,0,0c0,0,0,0,0,0c0,0,0,0,0,0c0,0,0,0,0,0c0,0,0,0,0,0c0,0,0,0,0,0c0,0,0,0,0,0c0,0,0,0,0,0
					c0,0,0,0,0,0c0,0,0,0,0,0c0,0,0,0,0,0c0,0,0,0,0,0c0,0,0,0,0,0c0,0,0,0,0,0c0,0,0,0,0,0c0,0,0,0,0,0c0,0,0,0,0,0c0,0,0,0,0,0
					c0,0,0,0,0,0c0,0,0,0,0,0c0,0,0,0,0,0c0,0,0,0,0,0c0,0,0,0,0,0c0,0,0,0,0,0c0,0,0,0,0,0c0,0,0,0,0,0c0,0,0,0,0,0c0,0,0,0,0,0
					c0,0,0,0,0,0c0,0,0,0,0,0c0,0,0,0,0,0c0,0,0,0,0,0c0,0,0,0,0,0c0,0,0,0,0,0c0,0,0,0,0,0c0.1,0,0.2,0,0.2,0c0,0,0,0,0,0
					c0,0,0,0,0,0c0,0,0,0,0,0c0,0,0,0,0,0c0,0,0,0,0,0c0.1,0,0.3,0,0.4-0.1v0c0.1,0,0.2,0,0.3,0c0,0,0,0,0,0c0,0,0,0,0,0
					c0,0,0,0,0,0c0,0,0,0,0,0c0,0,0,0,0,0c0,0,0,0,0,0c0,0,0,0,0,0c0,0,0,0,0,0c0,0,0,0,0,0c0,0,0,0,0,0c0,0,0,0,0,0c0,0,0,0,0,0
					c0,0,0,0,0,0c0,0,0,0,0,0c0,0,0,0,0,0c0,0,0,0,0,0c0,0,0,0,0,0c0,0,0,0,0,0c0,0,0,0,0,0c0,0,0,0,0,0c0,0,0,0,0,0c0,0,0,0,0,0
					c0,0,0,0,0,0c0,0,0,0,0,0c0,0,0,0,0,0c0.1,0,0.2,0,0.2,0c3.4,0,6.8,2.9,7.9,5.9L147.4,52.4"/>
			</g>
		</g>
		<g>
			<g>
				<path d="M1.2,61.1C0.4,61.1,0,60.7,0,60V37.3c0-0.8,0.4-1.2,1.2-1.2h6.9c1.8,0,3.5,0.3,5.1,0.8c1.5,0.5,2.8,1.3,3.9,2.3
					c1.1,1,1.9,2.3,2.5,3.9c0.6,1.6,0.9,3.4,0.9,5.6c0,2.1-0.3,4-0.9,5.5c-0.6,1.6-1.4,2.9-2.5,3.9c-1.1,1-2.4,1.8-3.9,2.3
					c-1.5,0.5-3.2,0.8-5.1,0.8H1.2z M18.1,48.7c0-1.8-0.3-3.4-0.8-4.7c-0.5-1.3-1.2-2.4-2.1-3.3c-0.9-0.9-2-1.5-3.2-1.9
					c-1.2-0.4-2.6-0.6-4.1-0.6H2.2v21h5.7c1.5,0,2.9-0.2,4.2-0.6c1.3-0.4,2.3-1.1,3.2-1.9c0.9-0.9,1.6-2,2.1-3.3
					C17.9,52,18.1,50.4,18.1,48.7z"/>
				<path d="M40.5,51.4c0,0.3-0.1,0.5-0.3,0.7c-0.2,0.1-0.4,0.2-0.7,0.2H26.1c0,2.4,0.6,4.3,1.7,5.6c1.1,1.3,2.7,2,4.7,2
					c0.8,0,1.5-0.1,2.1-0.3c0.6-0.2,1-0.4,1.4-0.7c0.4-0.3,0.7-0.6,1-0.9c0.3-0.3,0.5-0.6,0.7-0.9c0.1-0.2,0.3-0.3,0.4-0.4
					c0.1-0.1,0.2-0.1,0.4-0.1c0.2,0,0.5,0.1,0.7,0.2c0.2,0.1,0.4,0.3,0.4,0.6c0,0.3-0.1,0.6-0.4,0.9c-0.2,0.3-0.5,0.7-0.8,1.1
					c-0.3,0.4-0.8,0.8-1.3,1.1c-0.5,0.3-1.2,0.6-1.9,0.9c-0.7,0.2-1.6,0.4-2.6,0.4c-1.4,0-2.7-0.2-3.7-0.7c-1.1-0.5-2-1.1-2.7-2
					c-0.7-0.9-1.3-1.9-1.6-3c-0.4-1.2-0.6-2.5-0.6-3.9c0-1.4,0.2-2.7,0.6-3.9c0.4-1.2,1-2.2,1.7-3c0.7-0.8,1.6-1.5,2.7-2
					c1-0.5,2.2-0.7,3.5-0.7c1.3,0,2.5,0.2,3.5,0.7c1,0.5,1.9,1.1,2.5,1.9c0.7,0.8,1.2,1.8,1.5,2.8C40.3,49,40.5,50.2,40.5,51.4z
					 M32.4,44.3c-1,0-1.8,0.2-2.6,0.5c-0.7,0.3-1.4,0.8-1.9,1.4c-0.5,0.6-0.9,1.2-1.2,2c-0.3,0.8-0.5,1.6-0.5,2.4h12.2
					c-0.1-0.8-0.2-1.6-0.5-2.4s-0.7-1.4-1.2-2c-0.5-0.6-1.1-1-1.8-1.4C34.2,44.5,33.3,44.3,32.4,44.3z"/>
				<path d="M44.7,36.6c0-0.4,0.1-0.7,0.3-0.8c0.2-0.2,0.4-0.2,0.8-0.2c0.3,0,0.6,0.1,0.8,0.2c0.2,0.2,0.3,0.4,0.3,0.8v23.7
					c0,0.4-0.1,0.7-0.3,0.8c-0.2,0.1-0.4,0.2-0.8,0.2c-0.3,0-0.6-0.1-0.8-0.2c-0.2-0.1-0.3-0.4-0.3-0.8V36.6z"/>
				<path d="M51.8,37.5c0-0.5,0.1-0.9,0.4-1.2c0.3-0.3,0.6-0.4,1-0.4c0.4,0,0.8,0.1,1,0.4c0.3,0.3,0.4,0.7,0.4,1.2
					c0,0.5-0.1,0.9-0.4,1.2c-0.3,0.3-0.6,0.4-1,0.4c-0.4,0-0.8-0.1-1-0.4C51.9,38.4,51.8,38,51.8,37.5z M52.2,43.9
					c0-0.4,0.1-0.7,0.3-0.8c0.2-0.1,0.4-0.2,0.8-0.2c0.3,0,0.6,0.1,0.8,0.2c0.2,0.1,0.3,0.4,0.3,0.8v16.5c0,0.4-0.1,0.7-0.3,0.8
					c-0.2,0.1-0.4,0.2-0.8,0.2c-0.3,0-0.6-0.1-0.8-0.2c-0.2-0.1-0.3-0.4-0.3-0.8V43.9z"/>
				<path d="M58.1,45c-0.1-0.2-0.2-0.4-0.3-0.6c-0.1-0.2-0.1-0.5-0.1-0.7c0-0.3,0.1-0.5,0.4-0.7c0.3-0.2,0.6-0.2,0.9-0.2
					c0.4,0,0.6,0.3,0.8,0.8l6,15.3l6.4-15.3c0.1-0.3,0.3-0.5,0.4-0.6c0.2-0.1,0.3-0.2,0.5-0.2c0.3,0,0.6,0.1,0.8,0.2
					c0.3,0.2,0.4,0.4,0.4,0.6c0,0.2-0.1,0.6-0.4,1.1l-6.9,15.9c-0.1,0.2-0.3,0.4-0.5,0.6c-0.2,0.1-0.5,0.2-0.9,0.2
					c-0.4,0-0.7-0.1-0.9-0.2c-0.2-0.1-0.3-0.3-0.4-0.5L58.1,45z"/>
				<path d="M93.3,51.4c0,0.3-0.1,0.5-0.3,0.7c-0.2,0.1-0.4,0.2-0.7,0.2H78.9c0,2.4,0.6,4.3,1.7,5.6c1.1,1.3,2.7,2,4.7,2
					c0.8,0,1.5-0.1,2.1-0.3c0.6-0.2,1-0.4,1.4-0.7c0.4-0.3,0.7-0.6,1-0.9c0.3-0.3,0.5-0.6,0.7-0.9c0.1-0.2,0.3-0.3,0.4-0.4
					c0.1-0.1,0.2-0.1,0.4-0.1c0.2,0,0.5,0.1,0.7,0.2c0.2,0.1,0.4,0.3,0.4,0.6c0,0.3-0.1,0.6-0.4,0.9c-0.2,0.3-0.5,0.7-0.8,1.1
					c-0.3,0.4-0.8,0.8-1.3,1.1c-0.5,0.3-1.2,0.6-1.9,0.9c-0.7,0.2-1.6,0.4-2.6,0.4c-1.4,0-2.7-0.2-3.7-0.7c-1.1-0.5-2-1.1-2.7-2
					c-0.7-0.9-1.3-1.9-1.6-3c-0.4-1.2-0.6-2.5-0.6-3.9c0-1.4,0.2-2.7,0.6-3.9c0.4-1.2,1-2.2,1.7-3c0.7-0.8,1.6-1.5,2.7-2
					c1-0.5,2.2-0.7,3.5-0.7c1.3,0,2.5,0.2,3.5,0.7c1,0.5,1.9,1.1,2.5,1.9c0.7,0.8,1.2,1.8,1.5,2.8C93.2,49,93.3,50.2,93.3,51.4z
					 M85.2,44.3c-1,0-1.8,0.2-2.6,0.5c-0.7,0.3-1.4,0.8-1.9,1.4c-0.5,0.6-0.9,1.2-1.2,2c-0.3,0.8-0.5,1.6-0.5,2.4h12.2
					c-0.1-0.8-0.2-1.6-0.5-2.4c-0.3-0.8-0.7-1.4-1.2-2c-0.5-0.6-1.1-1-1.8-1.4C87,44.5,86.2,44.3,85.2,44.3z"/>
				<path d="M99.6,60.3c0,0.4-0.1,0.7-0.3,0.8c-0.2,0.1-0.5,0.2-0.8,0.2c-0.3,0-0.6-0.1-0.7-0.2c-0.2-0.1-0.3-0.4-0.3-0.8V43.8
					c0-0.4,0.1-0.6,0.3-0.8c0.2-0.1,0.4-0.2,0.7-0.2c0.3,0,0.6,0.1,0.7,0.2c0.2,0.1,0.3,0.4,0.3,0.8v3.4c0.4-0.8,0.8-1.5,1.3-2.1
					c0.5-0.6,1-1,1.6-1.4c0.6-0.3,1.1-0.6,1.7-0.8c0.6-0.2,1.1-0.2,1.5-0.2c0.5,0,0.9,0.1,1.1,0.3c0.2,0.2,0.3,0.5,0.3,0.9
					c0,0.4-0.1,0.7-0.3,0.9c-0.2,0.2-0.5,0.3-0.9,0.3c-1.9,0-3.5,0.6-4.6,1.9c-1.1,1.3-1.7,3.2-1.7,5.7V60.3z"/>
				<path d="M114.8,68c-0.2,0.5-0.5,0.8-0.9,0.8c-0.3,0-0.5-0.1-0.7-0.3c-0.2-0.2-0.3-0.4-0.3-0.7c0-0.2,0.1-0.5,0.3-0.9l2.7-6
					l-6.8-16.3c0-0.1-0.1-0.3-0.1-0.4c0-0.2-0.1-0.3-0.1-0.5c0-0.3,0.1-0.5,0.4-0.7c0.3-0.2,0.6-0.2,0.9-0.2c0.3,0,0.6,0.3,0.8,0.8
					l6.1,14.7l6.4-14.7c0.2-0.5,0.5-0.8,0.8-0.8c0.3,0,0.6,0.1,0.9,0.2c0.3,0.2,0.4,0.4,0.4,0.6c0,0.1,0,0.2-0.1,0.4
					c0,0.2-0.1,0.3-0.1,0.4L114.8,68z"/>
				<path d="M226.8,43.7l-5.7,15.7c-0.2,0.6-0.6,1.1-1,1.3c-0.5,0.3-1,0.4-1.6,0.4c-0.9,0-1.5-0.2-1.9-0.5c-0.4-0.3-0.8-0.8-1-1.5
					l-5.4-14.3v14.5c0,0.6-0.2,1-0.5,1.4c-0.3,0.4-1,0.6-1.9,0.6c-0.9,0-1.5-0.2-1.9-0.5c-0.3-0.3-0.5-0.9-0.5-1.6V38.5
					c0-0.9,0.3-1.5,0.9-1.9c0.6-0.4,1.4-0.6,2.4-0.6c1.1,0,1.9,0.2,2.4,0.6c0.6,0.4,1,1,1.2,1.7l6.2,17.6l5.9-17.5
					c0.3-0.9,0.7-1.5,1.4-1.9c0.6-0.4,1.5-0.6,2.6-0.6c1,0,1.8,0.2,2.4,0.6c0.6,0.4,0.9,0.9,0.9,1.7v21.1c0,0.6-0.2,1-0.5,1.4
					c-0.3,0.4-1,0.6-1.9,0.6c-0.9,0-1.5-0.2-1.8-0.6c-0.4-0.4-0.5-0.9-0.5-1.6V43.7z"/>
				<path d="M252.6,59.4c0,0.7-0.2,1.2-0.5,1.5c-0.3,0.3-0.9,0.5-1.8,0.5c-0.7,0-1.3-0.2-1.7-0.5c-0.4-0.3-0.6-0.8-0.6-1.5v-0.6
					c-0.3,0.3-0.6,0.7-0.9,1c-0.3,0.3-0.7,0.6-1.2,0.9c-0.5,0.3-1,0.5-1.6,0.6c-0.6,0.2-1.3,0.3-2.2,0.3c-1.9,0-3.4-0.5-4.5-1.5
					c-1.1-1-1.6-2.3-1.6-4c0-1,0.2-1.8,0.5-2.4c0.3-0.7,0.8-1.2,1.3-1.7c0.6-0.5,1.2-0.8,2-1.1c0.8-0.3,1.6-0.5,2.4-0.6
					c0.9-0.2,1.8-0.3,2.8-0.4c0.9-0.1,1.9-0.2,3-0.3v-0.7c0-0.4,0-0.7-0.1-1.1c-0.1-0.3-0.3-0.7-0.5-1c-0.2-0.3-0.5-0.5-1-0.7
					c-0.4-0.2-0.9-0.3-1.5-0.3c-0.4,0-0.7,0-1.1,0.1c-0.3,0-0.6,0.1-0.9,0.2c-0.3,0.1-0.6,0.3-0.9,0.5c-0.3,0.2-0.7,0.4-1.1,0.7
					c-0.3,0.2-0.6,0.4-0.9,0.5c-0.3,0.1-0.6,0.2-1,0.2c-0.6,0-1-0.2-1.5-0.6c-0.4-0.4-0.6-0.9-0.6-1.5c0-0.4,0.2-0.8,0.5-1.3
					c0.3-0.5,0.8-0.9,1.5-1.3s1.5-0.7,2.5-1c1-0.3,2.2-0.4,3.5-0.4c2.8,0,4.7,0.5,6,1.6c1.2,1.1,1.8,2.8,1.8,5V59.4z M247.9,52.6
					c-0.9,0.1-1.8,0.2-2.6,0.3c-0.8,0.1-1.4,0.2-1.9,0.3c-1.2,0.2-1.9,0.6-2.2,1c-0.3,0.4-0.5,0.9-0.5,1.3c0,0.6,0.2,1.1,0.6,1.5
					c0.4,0.3,1,0.5,2,0.5c1.5,0,2.6-0.3,3.5-1c0.8-0.7,1.2-1.6,1.2-2.6V52.6z"/>
				<path d="M263.2,61.7c-1.6,0-2.8-0.4-3.8-1.3c-0.9-0.9-1.4-2.2-1.4-4V46.3h-1.5c-0.4,0-0.7-0.2-0.9-0.6c-0.2-0.4-0.3-0.9-0.3-1.3
					c0-0.4,0.1-0.8,0.3-1.2c0.2-0.4,0.5-0.6,0.9-0.6h1.6v-3.4c0-0.4,0.1-0.8,0.3-1.1c0.2-0.3,0.5-0.5,0.8-0.7c0.3-0.2,0.7-0.3,1-0.4
					c0.4-0.1,0.7-0.1,1.1-0.1c0.6,0,1.1,0.1,1.3,0.4c0.3,0.3,0.4,0.7,0.4,1.1v4.2h3c0.5,0,0.8,0.2,1,0.5c0.2,0.3,0.3,0.8,0.3,1.2
					c0,1.3-0.4,1.9-1.3,1.9h-2.9v9.6c0,0.6,0.1,0.9,0.3,1.2c0.2,0.2,0.5,0.3,1,0.3c0.3,0,0.5,0,0.8-0.1c0.2-0.1,0.4-0.2,0.6-0.2
					l0.6-0.3c0.2-0.1,0.4-0.1,0.6-0.1c0.6,0,1.1,0.2,1.3,0.7c0.3,0.5,0.4,1,0.4,1.5c0,0.4-0.1,0.7-0.2,1c-0.1,0.3-0.4,0.6-0.7,0.8
					c-0.5,0.3-1.1,0.6-1.8,0.7C265.1,61.6,264.2,61.7,263.2,61.7z"/>
				<path d="M279.3,42c2.6,0,4.7,0.8,6.2,2.4c1.5,1.6,2.3,3.9,2.3,7c0,0.7-0.2,1.2-0.6,1.4c-0.4,0.3-1,0.4-1.8,0.4h-10.4
					c0.2,3,1.8,4.4,4.8,4.4c0.8,0,1.4-0.1,1.9-0.4c0.5-0.3,1-0.5,1.4-0.7c0.4-0.2,0.7-0.4,1-0.6c0.3-0.2,0.7-0.3,1.1-0.3
					c0.5,0,0.9,0.2,1.3,0.7c0.4,0.5,0.6,1,0.6,1.6c0,0.4-0.1,0.8-0.4,1.1c-0.3,0.3-0.7,0.7-1.2,1c-0.8,0.5-1.7,0.8-2.8,1.1
					c-1.1,0.3-2.1,0.4-3.1,0.4c-1.5,0-2.8-0.2-4-0.6c-1.2-0.4-2.2-1-3.1-1.8c-0.8-0.8-1.5-1.8-1.9-3c-0.5-1.2-0.7-2.6-0.7-4.3
					c0-1.3,0.2-2.5,0.5-3.7c0.4-1.2,0.9-2.3,1.7-3.2c0.8-0.9,1.7-1.7,2.9-2.3C276.3,42.3,277.7,42,279.3,42z M282.9,49.5
					c0-0.4-0.1-0.9-0.2-1.3c-0.1-0.4-0.4-0.8-0.7-1.2c-0.3-0.4-0.7-0.6-1.1-0.9c-0.5-0.2-1-0.3-1.7-0.3c-1,0-1.9,0.3-2.7,0.9
					c-0.8,0.6-1.2,1.5-1.3,2.7H282.9z"/>
				<path d="M306.3,55.7c0,2-0.7,3.5-2.2,4.5c-1.5,1-3.5,1.5-6,1.5c-1.4,0-2.7-0.2-3.9-0.5c-1.1-0.3-2.1-0.8-2.8-1.3
					c-0.3-0.2-0.5-0.5-0.7-0.7c-0.2-0.3-0.2-0.5-0.2-0.8c0-0.5,0.1-0.9,0.4-1.4c0.2-0.4,0.4-0.7,0.7-0.9c0.3-0.2,0.7-0.4,1.1-0.4
					c0.4,0,0.7,0.1,1,0.3c0.3,0.2,0.7,0.5,1.1,0.7c0.4,0.3,0.9,0.5,1.5,0.7c0.6,0.2,1.2,0.3,2.1,0.3c1,0,1.8-0.2,2.2-0.5
					c0.5-0.3,0.7-0.8,0.7-1.4c0-0.4-0.2-0.8-0.5-1.2c-0.3-0.4-1-0.6-2-0.8l-2.2-0.4c-0.9-0.1-1.7-0.4-2.4-0.6
					c-0.7-0.3-1.4-0.6-1.9-1.1c-0.5-0.4-0.9-1-1.2-1.6c-0.3-0.6-0.4-1.4-0.4-2.3c0-1,0.2-1.8,0.6-2.6c0.4-0.7,0.9-1.4,1.6-1.9
					c0.7-0.5,1.5-0.9,2.5-1.2c1-0.3,2-0.4,3.2-0.4c1.7,0,3,0.2,4.1,0.6c1.1,0.4,1.8,0.8,2.3,1.2c0.3,0.3,0.5,0.5,0.6,0.8
					c0.1,0.3,0.2,0.5,0.2,0.8c0,0.6-0.2,1.1-0.5,1.5c-0.2,0.2-0.4,0.4-0.6,0.6c-0.2,0.1-0.5,0.2-0.8,0.2c-0.3,0-0.5-0.1-0.8-0.2
					c-0.3-0.1-0.5-0.2-0.7-0.3c-0.6-0.4-1.3-0.7-1.9-0.9c-0.6-0.2-1.4-0.4-2.3-0.4c-0.9,0-1.6,0.2-2.1,0.5c-0.4,0.3-0.7,0.7-0.7,1.2
					c0,0.4,0.2,0.8,0.5,1.1c0.3,0.3,1,0.6,2.1,0.8l1.9,0.4c2.2,0.4,3.8,1.1,4.7,1.9C305.8,52.6,306.3,53.9,306.3,55.7z"/>
			</g>
		</g>
	</g>
</g>
</svg>
