<?xml version="1.0" encoding="utf-8"?>
<!-- Generator: Adobe Illustrator 19.1.0, SVG Export Plug-In . SVG Version: 6.00 Build 0)  -->
<svg version="1.1" id="Camada_1" xmlns="http://www.w3.org/2000/svg" xmlns:xlink="http://www.w3.org/1999/xlink" x="0px" y="0px"
	 viewBox="0 0 405.3 109.8" enable-background="new 0 0 405.3 109.8" xml:space="preserve">
<g>
	<g>
		<g>
			<linearGradient id="SVGID_2_" gradientUnits="userSpaceOnUse" x1="184.4378" y1="49.4327" x2="244.513" y2="49.4327">
				<stop  offset="0" style="stop-color:#BF2626"/>
				<stop  offset="1" style="stop-color:#ED5454"/>
			</linearGradient>
			<circle fill="url(#SVGID_2_)" cx="214.5" cy="49.4" r="30"/>
			<circle fill="#FFFFFF" cx="213.7" cy="47.6" r="26.4"/>
			<ellipse fill="#CCCCCC" cx="213.7" cy="107.8" rx="4.6" ry="2"/>
			<g>
				<g>
					<path fill="#E13E3E" d="M244.1,70.7C244.1,70.7,244.1,70.7,244.1,70.7c4.8-6.4,7.7-14.4,7.7-23.1c0-21.2-17.1-38.3-38.3-38.3
						S175.2,27,175.2,48.2c0,8.4,2.7,16.1,7.4,23.1c0,0,0,0,0,0l0-0.5c0.6,0.9,1.3,1.4,2,2.3l29,34.9L241.4,74
						C242.3,73,243.2,71.9,244.1,70.7L244.1,70.7z M213.6,19.8c15.3,0,27.7,12.4,27.7,27.7s-12.4,27.7-27.7,27.7
						c-15.3,0-27.7-12.4-27.7-27.7S198.3,19.8,213.6,19.8z"/>
				</g>
				<path fill="#CA3939" d="M214.6,9.2v10c0,0-0.8,0-0.8,0c15.3,0,27.7,11.2,27.7,26.5s-12.4,26.5-27.7,26.5c0,0,0.7,0,0.7,0v35.3
					l-0.4,0.1l27.5-33.9c0.9-1,1.7-2,2.6-3.1l0-0.1c0,0,0,0,0,0c4.8-6.4,8.1-14.4,8.1-23.1C252.4,26.4,234.6,9.3,214.6,9.2z"/>
			</g>
			<g>
				<polygon fill="#1D8FB7" points="251,35.3 251,35.3 251,35.3 251,35.3 				"/>
				<path fill="#DBAD83" d="M239.2,38c0,14.1-11.4,25.5-25.5,25.5c-14.1,0-25.5-11.4-25.5-25.5c0-14.1,11.4-25.5,25.5-25.5
					C227.8,12.4,239.2,23.9,239.2,38"/>
				<path fill="#F6CA9F" d="M213.7,12.4L213.7,12.4c-14.1,0-25.5,11.4-25.5,25.5c0,14.1,11.4,25.5,25.5,25.5l0,0V12.4"/>
				<path fill="#693319" d="M213.7,12.4c-14.1,0-25.5,11.4-25.5,25.5c0,0.1,0,0.3,0,0.4c4.4-1.5,8.2-4.2,11-7.7
					c4,3.2,9.1,5.1,14.6,5.1c5.6,0,10.8-2,14.9-5.3c2.7,3.5,6.4,6.2,10.6,7.7c0-0.1,0-0.1,0-0.2C239.2,23.9,227.8,12.4,213.7,12.4"
					/>
				<path d="M209.7,40.5c0,1.4-1.1,2.5-2.5,2.5c-1.4,0-2.5-1.1-2.5-2.5c0-1.4,1.1-2.5,2.5-2.5C208.5,37.9,209.7,39.1,209.7,40.5
					L209.7,40.5z"/>
				<path d="M222.5,40.5c0,1.4-1.1,2.5-2.5,2.5c-1.4,0-2.5-1.1-2.5-2.5c0-1.4,1.1-2.5,2.5-2.5C221.4,37.9,222.5,39.1,222.5,40.5
					L222.5,40.5z"/>
				<path fill="#922D2E" d="M213.7,48.2c-5.8,0-11.1-1.5-15.2-3.9c0.1,8.3,6.9,14.9,15.2,14.9s15-6.7,15.2-14.9
					C224.8,46.8,219.5,48.2,213.7,48.2L213.7,48.2z"/>
				<path fill="#FFFFFF" d="M198.5,44.4c0,1.5,0.3,2.9,0.7,4.3c4.2,2,9.2,3.2,14.5,3.2c5.3,0,10.3-1.2,14.5-3.2
					c0.4-1.4,0.7-2.8,0.7-4.3c-4,2.4-9.3,3.9-15.2,3.9C207.8,48.2,202.5,46.8,198.5,44.4L198.5,44.4z"/>
				<polyline fill="#267728" points="199.1,63 200.1,64.8 190.1,76.5 188,76 199.1,63 				"/>
				<path fill="#329136" d="M185.8,57.3C185.8,57.3,185.8,57.3,185.8,57.3C185.8,57.3,185.8,57.3,185.8,57.3 M185.9,57.3L185.9,57.3
					L185.9,57.3 M185.9,57.3L185.9,57.3L185.9,57.3 M185.9,57.3C185.9,57.3,185.9,57.3,185.9,57.3C185.9,57.3,185.9,57.3,185.9,57.3
					 M186,57.3C186,57.3,186,57.3,186,57.3C186,57.3,186,57.3,186,57.3 M186,57.3C186,57.3,186,57.3,186,57.3
					C186,57.3,186,57.3,186,57.3 M186,57.3C186,57.3,186,57.3,186,57.3C186,57.3,186,57.3,186,57.3 M186.1,57.3L186.1,57.3
					L186.1,57.3 M186.1,57.3C186.1,57.3,186.1,57.3,186.1,57.3C186.1,57.3,186.1,57.3,186.1,57.3 M186.2,57.2
					C186.2,57.2,186.2,57.2,186.2,57.2C186.2,57.2,186.2,57.2,186.2,57.2 M186.2,57.2C186.2,57.2,186.2,57.2,186.2,57.2
					C186.2,57.2,186.2,57.2,186.2,57.2 M186.2,57.2C186.2,57.2,186.2,57.2,186.2,57.2C186.2,57.2,186.2,57.2,186.2,57.2 M186.3,57.2
					C186.3,57.2,186.3,57.2,186.3,57.2C186.3,57.2,186.3,57.2,186.3,57.2 M186.3,57.2C186.3,57.2,186.3,57.2,186.3,57.2
					C186.3,57.2,186.3,57.2,186.3,57.2 M186.3,57.2C186.3,57.2,186.3,57.2,186.3,57.2C186.3,57.2,186.3,57.2,186.3,57.2 M186.3,57.2
					C186.4,57.2,186.4,57.2,186.3,57.2C186.4,57.2,186.4,57.2,186.3,57.2 M186.4,57.2C186.4,57.2,186.4,57.2,186.4,57.2
					C186.4,57.2,186.4,57.2,186.4,57.2 M186.4,57.2C186.4,57.2,186.4,57.2,186.4,57.2C186.4,57.2,186.4,57.2,186.4,57.2 M186.4,57.2
					C186.4,57.2,186.5,57.2,186.4,57.2C186.5,57.2,186.4,57.2,186.4,57.2 M186.5,57.2C186.5,57.2,186.5,57.2,186.5,57.2
					C186.5,57.2,186.5,57.2,186.5,57.2 M186.5,57.2C186.5,57.2,186.5,57.2,186.5,57.2C186.5,57.2,186.5,57.2,186.5,57.2 M186.5,57.1
					c0.1,0,0.2,0,0.3-0.1C186.7,57.1,186.6,57.1,186.5,57.1 M186.8,57.1C186.9,57.1,186.9,57.1,186.8,57.1
					C186.9,57.1,186.9,57.1,186.8,57.1 M186.9,57.1C186.9,57.1,186.9,57.1,186.9,57.1C186.9,57.1,186.9,57.1,186.9,57.1 M186.9,57.1
					c0.2,0,0.3-0.1,0.5-0.1C187.3,57,187.1,57,186.9,57.1 M187.4,57c0.1,0,0.3,0,0.4,0C187.7,57,187.6,57,187.4,57 M187.8,57
					C187.8,57,187.8,57,187.8,57C187.8,57,187.8,57,187.8,57 M187.9,57C187.9,57,187.9,57,187.9,57C187.9,57,187.9,57,187.9,57
					 M187.9,57C187.9,57,187.9,57,187.9,57C187.9,57,187.9,57,187.9,57 M187.9,57C187.9,57,187.9,57,187.9,57
					C187.9,57,187.9,57,187.9,57 M188,57C188,57,188,57,188,57C188,57,188,57,188,57 M188,56.9C188,56.9,188,56.9,188,56.9
					C188,56.9,188,56.9,188,56.9 M188,56.9C188,56.9,188,56.9,188,56.9C188,56.9,188,56.9,188,56.9 M188.1,56.9
					C188.1,56.9,188.1,56.9,188.1,56.9C188.1,56.9,188.1,56.9,188.1,56.9 M188.1,56.9C188.1,56.9,188.1,56.9,188.1,56.9
					C188.1,56.9,188.1,56.9,188.1,56.9 M188.1,56.9C188.1,56.9,188.1,56.9,188.1,56.9C188.1,56.9,188.1,56.9,188.1,56.9 M188.2,56.9
					C188.2,56.9,188.2,56.9,188.2,56.9C188.2,56.9,188.2,56.9,188.2,56.9 M188.2,56.9C188.2,56.9,188.2,56.9,188.2,56.9
					C188.2,56.9,188.2,56.9,188.2,56.9"/>
				<path fill="#804934" d="M213.7,12.4L213.7,12.4c-14.1,0-25.5,11.4-25.5,25.5c0,0.1,0,0.3,0,0.4c4.4-1.5,8.2-4.2,11-7.7
					c4,3.2,9,5.1,14.5,5.1V12.4"/>
				<path fill="#57AD59" d="M215,2.1c0.1-0.2,0.1-0.4,0.1-0.7c0-0.8-0.6-1.5-1.5-1.5c-0.8,0-1.5,0.6-1.5,1.4c0,0.2,0.1,0.5,0.1,0.7
					c-13.3,0.7-23.9,11.1-23.9,25.3h50.5C238.9,13.3,228.3,2.8,215,2.1"/>
				<path fill="#339138" d="M239.3,27.8c0-0.6-0.5-1-1-1H189c-0.6,0-1,0.5-1,1c0,0.5,0.4,0.7,1,0.8c9.4,3.5,15,4,23.4,4h0.1
					c8.3,0,17.6-0.6,25.9-4C238.9,28.5,239.3,28.3,239.3,27.8"/>
				<path fill="#E5E5E4" d="M237.6,28.9C237.6,28.9,237.6,28.9,237.6,28.9c0.3-0.2,0.5-0.3,0.8-0.4c0.1,0,0.3,0,0.4-0.1
					c-0.1,0.1-0.3,0.2-0.5,0.2C238,28.8,237.8,28.8,237.6,28.9"/>
				<path fill="#C59B76" d="M226.9,31.7c0.1-0.1,0.2-0.1,0.2-0.2c0.7-0.1,1.4-0.2,2.1-0.4c0,0,0,0.1,0.1,0.1
					C228.5,31.4,227.7,31.6,226.9,31.7"/>
				<path fill="#5D2E17" d="M213.7,32.8v-0.3c4.3,0,8.9-0.3,13.5-1c-0.1,0.1-0.2,0.1-0.2,0.2C222.3,32.5,217.8,32.8,213.7,32.8
					 M229.3,31.3C229.3,31.3,229.3,31.2,229.3,31.3c2.8-0.6,5.6-1.4,8.2-2.4c0,0,0,0,0,0.1C234.9,29.9,232.1,30.7,229.3,31.3"/>
				<path fill="#329136" d="M238.9,26.4C238.9,26.4,238.9,26.3,238.9,26.4c-0.5-12.1-8.8-21.4-19.8-23.7c0.5,0.1,0.9,0.1,1.4,0.2
					C231,5.7,238.8,15,238.9,26.4"/>
				<path opacity="0.2" d="M238.9,27c-0.2-0.1-0.4-0.2-0.6-0.2h-24.7v-0.1V0c0.6,0.1,1.4,0.7,1.4,1.4c0,0.2,0,0.4,0,0.6
					c0,0,0,0,0.1,0c0,0,0,0.1-0.1,0.1c1.4,0.1,2.8,0.2,4.1,0.5c11,2.3,19.3,11.6,19.8,23.7c0,0.1,0,0.3,0,0.4h0c0,0,0,0,0,0
					C238.9,26.9,238.9,26.9,238.9,27"/>
				<path opacity="0.2" d="M213.7,32.5v-5.6v-0.1h24.7c0.2,0,0.5,0.1,0.6,0.2c0.1,0.1,0.1,0.1,0.2,0.2c0.1,0.2,0.2,0.2,0.2,0.5
					c0,0.4-0.2,0.7-0.5,0.9c-0.1,0-0.3,0.1-0.4,0.1c-0.3,0.1-0.5,0.2-0.8,0.3l0,0c-2.7,1-5.5,1.8-8.3,2.3c-0.7,0.1-1.4,0.3-2.1,0.4
					C222.6,32.3,218,32.5,213.7,32.5"/>
				<g>
					<polygon fill="#F6CA9F" points="239.6,52.8 260.3,64.1 239,72.8 217.7,61.1 					"/>
					<polygon fill="#D2A06F" points="218.6,61.1 218.6,81.1 236.6,93.7 236.6,72.8 					"/>
					<polygon fill="#91633E" points="238.1,93.7 259.6,85.2 259.6,64.1 238.3,72.8 					"/>
					<polygon fill="#F9EBDE" points="246,56.6 224.1,65.1 228.9,67.7 250.8,59.1 					"/>
					<polygon fill="#ADA196" points="223.6,65 223.6,70.8 228.5,73.5 228.5,67.7 					"/>
					<g>
						<path fill-rule="evenodd" clip-rule="evenodd" fill="#693319" d="M256.2,79.9C256.2,79.8,256.2,79.8,256.2,79.9
							C256.2,79.8,256.2,79.8,256.2,79.9L256.2,79.9C256.2,79.8,256.2,79.8,256.2,79.9L256.2,79.9c0.1,0.1,0.1,0.2,0,0.3
							c0,0,0,0,0,0l0,0c0,0,0,0,0,0l0,0c0,0-0.1,0.1-0.1,0.1c0,0,0,0,0,0l0,0c0,0,0,0,0,0l0,0c0,0,0,0,0,0l0-0.1c0,0,0,0,0,0v0
							c0,0,0,0,0,0l0,0L256.2,79.9L256.2,79.9z"/>
						<path fill-rule="evenodd" clip-rule="evenodd" fill="#693319" d="M256.8,79.9c0,0.1,0,0.2,0,0.3l0,0c0,0,0,0,0,0l0,0
							c0,0,0,0,0,0c0,0-0.1,0-0.1,0.1c0,0,0,0,0,0c0,0,0,0,0,0c0,0,0,0,0,0c0-0.1,0-0.1,0.1-0.2c0,0,0,0,0,0
							C256.7,80,256.7,80,256.8,79.9C256.8,79.9,256.8,79.9,256.8,79.9L256.8,79.9C256.8,79.9,256.8,79.9,256.8,79.9
							C256.8,79.9,256.8,79.9,256.8,79.9z"/>
						<path fill-rule="evenodd" clip-rule="evenodd" fill="#693319" d="M257.4,80.1L257.4,80.1C257.4,80.1,257.4,80.1,257.4,80.1
							l0,0.2c0,0,0,0,0,0l0,0.1c0,0,0,0,0,0l-0.1,0.1l0,0c0,0,0,0,0,0l0,0c0,0,0,0,0,0c-0.1,0-0.1,0-0.1-0.1v0c0,0,0,0,0,0
							c0,0,0,0,0,0v0C257.2,80.2,257.3,80.2,257.4,80.1C257.3,80.1,257.4,80.1,257.4,80.1C257.4,80.1,257.4,80.1,257.4,80.1z"/>
						<g>
							<path fill-rule="evenodd" clip-rule="evenodd" fill="#693319" d="M255.6,80.5L255.6,80.5C255.6,80.5,255.6,80.5,255.6,80.5
								C255.7,80.4,255.7,80.4,255.6,80.5C255.7,80.5,255.7,80.5,255.6,80.5c0.1,0,0.1,0.1,0.1,0.2l0,0c0,0,0,0,0,0c0,0,0,0,0,0
								c-0.1,0-0.1,0.1-0.2,0.1c0,0,0,0,0,0c0,0,0,0,0,0c0-0.1,0-0.1,0-0.2C255.5,80.6,255.6,80.6,255.6,80.5z"/>
							<path fill-rule="evenodd" clip-rule="evenodd" fill="#693319" d="M254,82.5c0.1-0.2,0.2-0.3,0.4-0.4c0,0,0,0,0,0
								c0.2-0.2,0.4-0.3,0.6-0.4c0.1-0.1,0.3-0.2,0.6-0.3l0-0.2l0,0c0,0,0,0,0,0l0.1-0.1l0,0c0,0,0,0,0,0l0,0c0,0,0.1,0,0.1,0
								c0,0,0,0,0,0.1c0.3-0.1,0.5-0.2,0.7-0.2c0.3,0,0.5-0.1,0.7,0c0,0,0,0,0,0c0.1,0,0.1,0,0.2,0.1c0,0,0,0,0,0
								c0.2,0.1,0.4,0.3,0.4,0.5c0,0,0,0.1,0,0.2c0,0,0,0.1,0,0.2c0,0,0,0,0,0l0,0c0,0,0,0,0,0l0,0c0,0,0,0,0,0l0,0
								c-0.1,0-0.3,0-0.4,0.1c-0.2,0.1-0.3,0.2-0.4,0.3c0,0,0,0,0,0l0,0l0,0c0,0,0,0,0,0c-0.1,0-0.2,0-0.4,0
								c-0.1,0.1-0.3,0.2-0.4,0.3l0,0c0,0,0,0,0,0c0,0,0,0,0,0c-0.1,0-0.2,0-0.4,0.1c0,1.3,0,2,0,2.3v0c0,0.1,0,0.1-0.1,0.2
								c0,0.1-0.1,0.1-0.1,0.2c-0.1,0.1-0.2,0.2-0.3,0.2c-0.1,0-0.2,0-0.3,0c0,0,0,0,0,0l0,0c-0.1,0-0.1-0.1-0.1-0.3c0,0,0,0,0,0
								l0,0c0,0,0,0,0,0l0.1-0.1c0,0,0,0,0,0l0,0c0,0,0,0,0,0c0,0,0,0,0,0c0,0.1,0,0.1,0,0.1c0,0,0.1,0,0.1,0l0,0
								c0.2,0,0.3-0.1,0.4-0.2c0,0,0-0.1,0.1-0.1c0-0.1,0-0.1,0-0.2l0-2.1c-0.1,0-0.1,0-0.2,0.1c-0.1,0-0.1,0.1-0.2,0.2l0,0
								c0,0,0,0,0,0c0,0,0,0,0,0l0,0l-0.1,0c-0.1,0-0.2,0-0.4,0.1l0,0c-0.1,0.1-0.2,0.2-0.3,0.3l0,0c0,0,0,0,0,0c0,0,0,0,0,0l0,0
								c-0.1,0-0.3,0-0.4,0c-0.1,0.1-0.3,0.1-0.4,0.3l0,0c0,0,0,0,0,0l0,0c0,0,0,0,0,0l0,0c0,0,0,0,0,0v0c0,0,0,0,0,0
								c0,0,0-0.1,0-0.2c0,0,0,0,0,0c0-0.2,0.1-0.3,0.1-0.4c0,0,0,0,0,0l0.1-0.2c0,0,0,0,0,0C253.8,82.8,253.9,82.7,254,82.5z"/>
							<path fill-rule="evenodd" clip-rule="evenodd" fill="#693319" d="M255.1,81.1c0,0,0,0.1,0,0.1v0c0,0.1,0,0.1-0.1,0.2l0,0
								c0,0,0,0,0,0c0,0,0,0,0,0c0,0-0.1,0.1-0.1,0l0,0l0,0l0,0c0,0-0.1,0-0.1,0c0,0,0,0,0,0v0c0,0,0,0,0,0v0
								C254.9,81.4,254.9,81.3,255.1,81.1C255,81.1,255,81.1,255.1,81.1C255.1,81.1,255.1,81.1,255.1,81.1L255.1,81.1
								C255.1,81.1,255.1,81.1,255.1,81.1z"/>
							<path fill-rule="evenodd" clip-rule="evenodd" fill="#693319" d="M256.5,80.5L256.5,80.5c0,0.1,0,0.1,0,0.1v0
								c0,0.1,0,0.1-0.1,0.2l0,0c0,0,0,0,0,0c0,0-0.1,0.1-0.1,0.1l0,0c0,0-0.1,0-0.1,0l0,0c0,0,0,0,0,0c0-0.1,0-0.2,0.1-0.3
								c0,0,0,0,0,0l0,0L256.5,80.5C256.4,80.5,256.4,80.5,256.5,80.5L256.5,80.5C256.5,80.5,256.5,80.5,256.5,80.5
								C256.5,80.5,256.5,80.5,256.5,80.5z"/>
							<path fill-rule="evenodd" clip-rule="evenodd" fill="#693319" d="M258.5,78.4l-5.5,2.3c0,0,0.3,0,0.3,0c0,0,0.3,0,0.3,0v6.3
								c0,0-0.3,0-0.3,0c0,0-0.1,0-0.1,0l5.4-2.3c0,0,0,0,0,0c0,0,0,0,0,0L258.5,78.4L258.5,78.4z M258.6,84.5l-5,2.1v-5.7l5-2.1
								V84.5z"/>
							<path fill-rule="evenodd" clip-rule="evenodd" fill="#693319" d="M251.6,81.1v6.3c0,0,0,0,0,0c0,0,0,0,0,0l-5.5,2.3
								c0,0,0,0,0,0c0,0,0,0,0,0v-6.3c0,0,0,0,0,0c0,0,0,0,0,0L251.6,81.1C251.5,81.1,251.6,81.1,251.6,81.1
								C251.6,81.1,251.6,81.1,251.6,81.1z M249.9,82.4v2.6c0,0.1,0,0.1,0,0.2c0,0.1,0,0.2-0.1,0.3c0,0.1-0.1,0.2-0.2,0.2
								c-0.1,0.1-0.2,0.2-0.4,0.3c-0.1,0.1-0.2,0.1-0.4,0.2c0,0.1,0,0.4,0,0.8c0,0.3,0,0.6,0,0.8c0.1,0,0.2-0.1,0.4-0.2
								c0.2-0.1,0.4-0.2,0.4-0.2c0,0,0,0,0,0c0,0,0,0,0,0l0,0.2c0,0,0,0,0,0c0,0,0,0,0,0l-2,0.9c0,0,0,0,0,0c0,0,0,0,0,0v-0.2
								c0,0,0,0,0,0c0,0,0,0,0,0l0.8-0.3l0-1.7c-0.1,0.1-0.2,0.1-0.3,0.1c-0.1,0-0.3,0-0.4,0c0,0,0,0,0,0c-0.1,0-0.1,0-0.1-0.1
								c0-0.1-0.1-0.1,0-0.2v0c0-0.3,0-0.8,0-1.4c0-0.7,0-1.1,0-1.4c0,0,0,0,0,0c0,0,0,0,0,0C248.2,83.1,248.9,82.8,249.9,82.4
								C249.9,82.3,249.9,82.3,249.9,82.4C249.9,82.3,249.9,82.4,249.9,82.4z M246.3,89.4l4.9-2.1v-5.7l-4.9,2.1V89.4z"/>
							<path fill-rule="evenodd" clip-rule="evenodd" fill="#693319" d="M240.9,85.8L240.9,85.8l0.9,1.4c0,0,0,0,0,0v0c0,0,0,0,0,0
								l0,0c0,0,0,0,0,0l-0.5,0.2v3c0,0,0,0,0,0c0,0,0,0,0,0l-0.6,0.3c0,0,0,0,0,0c0,0,0,0,0,0v-3L240,88c0,0,0,0,0,0l0,0
								c0,0,0,0,0,0v0c0,0,0,0,0,0L240.9,85.8L240.9,85.8C240.9,85.9,240.9,85.9,240.9,85.8C240.9,85.8,240.9,85.8,240.9,85.8
								C240.9,85.8,240.9,85.8,240.9,85.8z M239.1,86.2l5.5-2.3c0,0,0,0,0,0c0,0,0,0,0,0v6.3c0,0,0,0,0,0c0,0,0,0,0,0l-5.5,2.3
								c0,0,0,0,0,0c0,0,0,0,0,0L239.1,86.2C239.1,86.2,239.1,86.2,239.1,86.2C239.1,86.2,239.1,86.2,239.1,86.2z M242.7,85.1
								L242.7,85.1l0.9,1.4c0,0,0,0,0,0v0c0,0,0,0,0,0l0,0c0,0,0,0,0,0l-0.5,0.2v3c0,0,0,0,0,0c0,0,0,0,0,0l-0.6,0.3c0,0,0,0,0,0
								c0,0,0,0,0,0v-3l-0.5,0.2c0,0,0,0,0,0l0,0c0,0,0,0,0,0v0c0,0,0,0,0,0L242.7,85.1L242.7,85.1
								C242.7,85.1,242.7,85.1,242.7,85.1C242.7,85.1,242.7,85.1,242.7,85.1C242.7,85.1,242.7,85.1,242.7,85.1z M239.4,86.4v5.7
								l4.9-2.1v-5.7L239.4,86.4z M243.9,90C243.9,90,243.9,90,243.9,90C243.9,90,243.9,90.1,243.9,90l-4,1.7c0,0,0,0,0,0
								c0,0,0,0,0,0l0-0.4c0,0,0,0,0,0c0,0,0,0,0,0l4-1.7c0,0,0,0,0,0c0,0,0,0,0,0L243.9,90z"/>
						</g>
					</g>
					<line opacity="0.4" fill="none" stroke="#91633E" stroke-miterlimit="10" x1="250.8" y1="59.1" x2="228.9" y2="67.7"/>
					<line fill="none" stroke="#91633E" stroke-miterlimit="10" x1="228.9" y1="67.7" x2="228.8" y2="73.5"/>
					<path opacity="0.4" fill="#91633E" d="M254.9,64.6l-4.1,1.6c-0.8,0.3-2,0.3-2.6-0.2l-0.8-0.5c-0.6-0.4-0.5-1,0.4-1.4l4.1-1.6
						c0.8-0.3,2-0.3,2.6,0.2l0.8,0.5C255.9,63.7,255.7,64.3,254.9,64.6z"/>
					<path fill="#F9EBDE" d="M254.9,64.3l-4.1,1.6c-0.8,0.3-2,0.3-2.6-0.2l-0.8-0.5c-0.6-0.4-0.5-1,0.4-1.4l4.1-1.6
						c0.8-0.3,2-0.3,2.6,0.2l0.8,0.5C255.9,63.4,255.7,64,254.9,64.3z"/>
					<g>
						<polygon fill-rule="evenodd" clip-rule="evenodd" fill="#91633E" points="224.5,80.8 228.9,83.4 228.9,88.4 224.5,85.5 						
							"/>
						<polygon fill-rule="evenodd" clip-rule="evenodd" fill="#ADA196" points="224.4,80.8 228.6,83.2 228.6,88.3 224.4,85.5 						
							"/>
						<g>
							<path fill-rule="evenodd" clip-rule="evenodd" fill="#2376B8" d="M229.2,76.9l-10.6-6.1c-0.2-0.1-0.3-0.1-0.3,0.2v2.7
								c0,0.2,0.1,0.4,0.3,0.5l10.6,6.1c0.2,0.1,0.3,0.1,0.3-0.2v-2.7C229.5,77.2,229.4,77,229.2,76.9z M218.3,74.8V79
								c0,0.2,0.1,0.4,0.3,0.5l10.6,6.1c0.2,0.1,0.3,0.1,0.3-0.2v-4.2c0-0.2-0.1-0.4-0.3-0.5l-10.6-6.1
								C218.4,74.5,218.3,74.6,218.3,74.8z M230.2,76.7V87l-12.6-7.3V69.4L230.2,76.7z"/>
							<path fill-rule="evenodd" clip-rule="evenodd" fill="#FFFFFF" d="M229.2,76.9c0.2,0.1,0.3,0.3,0.3,0.5v2.7
								c0,0.2-0.1,0.3-0.3,0.2l-10.6-6.1c-0.2-0.1-0.3-0.3-0.3-0.5v-2.7c0-0.2,0.1-0.3,0.3-0.2L229.2,76.9z M218.7,75.5v0.4l10.3,6
								v-0.4L218.7,75.5z M218.7,76.5v0.4l10.3,6v-0.4L218.7,76.5z M229,77.7v-0.4l-10.3-6v0.4L229,77.7z M229,78.6v-0.4l-10.3-6
								v0.4L229,78.6z M218.3,74.8c0-0.2,0.1-0.3,0.3-0.2l10.6,6.1c0.2,0.1,0.3,0.3,0.3,0.5v4.2c0,0.2-0.1,0.3-0.3,0.2l-10.6-6.1
								c-0.2-0.1-0.3-0.3-0.3-0.5V74.8z M218.7,78.7v0.4l10.3,6v-0.4L218.7,78.7z M218.7,77.6V78l10.3,6v-0.4L218.7,77.6z
								 M218.7,73.3v0.4l10.3,6v-0.4L218.7,73.3z"/>
							<path fill-rule="evenodd" clip-rule="evenodd" fill="#999999" d="M229,78.6l-10.3-6v-0.4l10.3,6V78.6z M229,77.7l-10.3-6
								v-0.4l10.3,6V77.7z M218.7,76.5l10.3,6v0.4l-10.3-6V76.5z M218.7,75.5l10.3,6v0.4l-10.3-6V75.5z M218.7,73.3l10.3,6v0.4
								l-10.3-6V73.3z M218.7,77.6l10.3,6V84l-10.3-6V77.6z M218.7,78.7l10.3,6v0.4l-10.3-6V78.7z"/>
						</g>
					</g>
				</g>
				<path fill="#F6CA9F" d="M240.5,73.9c-0.7,0.2-1.5,0.4-2.3,0.7c0.8-1.3,1.4-2.5,1.2-3.7c-0.3-1.9-2.8-2.2-3.4-0.7
					c-1.3,1.9-2.8,3.1-4.5,3.9c-12.4,0.5-27-2.9-31.5-9.2l-10,11.7c12.6,9,25.2,12,39.5,10.7c4.1,1.4,8.6,0.6,10.4-1
					c0.8-1,0.8-2.1-1.4-2.7c-0.1,0-0.3-0.1-0.4-0.1c1.9-0.4,3.3-1,3.9-1.4c1.9-1.3,1.1-3.3-2.1-2.9c-0.5,0-1,0-1.4,0.1
					c1.8-0.8,3.4-1.7,4.6-3C244.4,74.3,243,73.4,240.5,73.9L240.5,73.9z"/>
				<path fill="#57AD59" d="M188,76l11.1-13c-1.5-4-6.3-8-10.8-7.8c-5.7,0.2-10.1,5-9.9,10.6C178.5,69.9,182.8,74.4,188,76"/>
				<path opacity="0.2" d="M193.6,69.4l-12.8-10.5c1.3-1.5,3.1-2.7,5.1-3.3c0,0,0,0,0,0c0,0,0,0,0,0l0,0c0,0,0,0,0,0c0,0,0,0,0,0
					c0,0,0,0,0,0c0,0,0,0,0,0c0,0,0,0,0,0c0,0,0,0,0,0c0,0,0,0,0,0c0,0,0,0,0,0c0,0,0,0,0,0c0,0,0,0,0,0c0,0,0,0,0,0l0,0
					c0,0,0,0,0,0c0,0,0,0,0,0c0,0,0,0,0.1,0c0,0,0,0,0,0c0,0,0,0,0,0c0,0,0,0,0,0c0,0,0,0,0,0c0,0,0,0,0,0c0,0,0,0,0,0c0,0,0,0,0,0
					c0,0,0,0,0,0c0,0,0,0,0,0c0,0,0,0,0,0c0,0,0,0,0,0c0,0,0,0,0,0c0,0,0,0,0,0c0,0,0,0,0,0c0,0,0,0,0,0c0,0,0,0,0,0c0,0,0,0,0,0
					c0,0,0,0,0,0c0,0,0,0,0,0c0,0,0,0,0,0c0,0,0,0,0,0c0,0,0,0,0,0c0,0,0,0,0,0l0,0c0.1,0,0.2,0,0.3-0.1l0,0c0,0,0,0,0,0
					c0,0,0,0,0,0c0,0,0,0,0,0l0,0c0.2,0,0.3-0.1,0.5-0.1v0c0.1,0,0.3,0,0.4,0c0,0,0,0,0,0c0,0,0,0,0,0c0,0,0,0,0,0c0,0,0,0,0,0
					c0,0,0,0,0,0c0,0,0,0,0,0c0,0,0,0,0,0c0,0,0,0,0,0c0,0,0,0,0,0c0,0,0,0,0,0c0,0,0,0,0,0c0,0,0,0,0,0c0,0,0,0,0,0c0,0,0,0,0,0
					c0,0,0,0,0,0c0,0,0,0,0,0c0,0,0,0,0,0c0,0,0,0,0,0c0,0,0,0,0,0c0,0,0,0,0,0c0,0,0,0,0,0c0,0,0,0,0,0c0,0,0,0,0,0c0,0,0,0,0,0
					c0,0,0,0,0,0c0.1,0,0.2,0,0.3,0c4.5,0,9,3.8,10.5,7.8L193.6,69.4"/>
			</g>
		</g>
		<g>
			<g>
				<path d="M1.6,74.3c-1,0-1.6-0.5-1.6-1.5v-30c0-1,0.5-1.5,1.6-1.5h9.2c2.4,0,4.7,0.3,6.7,1c2,0.7,3.7,1.7,5.2,3
					c1.4,1.4,2.5,3.1,3.3,5.1c0.8,2.1,1.2,4.6,1.2,7.4c0,2.8-0.4,5.3-1.2,7.3c-0.8,2.1-1.9,3.8-3.3,5.1c-1.4,1.4-3.2,2.4-5.2,3
					c-2,0.7-4.3,1-6.7,1H1.6z M24,57.8c0-2.4-0.3-4.5-1-6.2c-0.7-1.7-1.6-3.2-2.8-4.3c-1.2-1.1-2.6-2-4.3-2.6
					c-1.7-0.6-3.5-0.9-5.5-0.9H2.9v27.8h7.5c2,0,3.9-0.3,5.6-0.8c1.7-0.6,3.1-1.4,4.3-2.6c1.2-1.1,2.1-2.6,2.7-4.3
					C23.7,62.2,24,60.1,24,57.8z"/>
				<path d="M53.6,61.5c0,0.4-0.1,0.7-0.4,0.9c-0.2,0.2-0.5,0.3-0.9,0.3H34.6c0.1,3.2,0.8,5.6,2.3,7.4c1.4,1.7,3.5,2.6,6.2,2.6
					c1.1,0,2-0.1,2.7-0.4c0.7-0.2,1.4-0.5,1.9-0.9c0.5-0.4,1-0.8,1.3-1.2c0.3-0.4,0.7-0.8,0.9-1.2c0.2-0.3,0.4-0.4,0.5-0.6
					c0.1-0.1,0.3-0.2,0.6-0.2c0.3,0,0.6,0.1,1,0.3c0.3,0.2,0.5,0.5,0.5,0.8c0,0.4-0.2,0.8-0.5,1.2c-0.3,0.4-0.7,0.9-1.1,1.5
					c-0.5,0.5-1,1-1.8,1.5c-0.7,0.5-1.6,0.9-2.6,1.2c-1,0.3-2.1,0.5-3.4,0.5c-1.9,0-3.5-0.3-4.9-0.9c-1.4-0.6-2.6-1.5-3.6-2.6
					c-1-1.1-1.7-2.5-2.2-4c-0.5-1.6-0.7-3.3-0.7-5.2c0-1.8,0.3-3.6,0.8-5.1c0.5-1.6,1.3-2.9,2.3-4c1-1.1,2.2-2,3.6-2.6
					c1.4-0.6,2.9-1,4.6-1c1.7,0,3.3,0.3,4.6,0.9c1.3,0.6,2.5,1.5,3.4,2.5c0.9,1.1,1.6,2.3,2.1,3.8C53.4,58.3,53.6,59.8,53.6,61.5z
					 M42.9,52c-1.3,0-2.4,0.2-3.4,0.7c-1,0.4-1.8,1-2.5,1.8c-0.7,0.8-1.2,1.7-1.6,2.7c-0.4,1-0.6,2.1-0.7,3.2h16.2
					c-0.1-1.1-0.3-2.2-0.7-3.2c-0.4-1-0.9-1.9-1.5-2.6c-0.7-0.8-1.5-1.4-2.4-1.8C45.3,52.3,44.2,52,42.9,52z"/>
				<path d="M59.2,41.8c0-0.5,0.1-0.9,0.3-1.1c0.2-0.2,0.6-0.3,1-0.3c0.4,0,0.8,0.1,1,0.3c0.2,0.2,0.4,0.6,0.4,1.1v31.4
					c0,0.5-0.1,0.9-0.4,1.1s-0.6,0.3-1,0.3c-0.4,0-0.8-0.1-1-0.3c-0.2-0.2-0.3-0.6-0.3-1.1V41.8z"/>
				<path d="M68.6,43c0-0.7,0.2-1.2,0.6-1.6c0.4-0.3,0.8-0.5,1.4-0.5c0.5,0,1,0.2,1.4,0.5c0.4,0.4,0.6,0.9,0.6,1.6
					c0,0.7-0.2,1.2-0.6,1.5c-0.4,0.4-0.8,0.5-1.4,0.5c-0.5,0-1-0.2-1.4-0.5C68.8,44.1,68.6,43.6,68.6,43z M69.2,51.4
					c0-0.5,0.1-0.9,0.3-1.1c0.2-0.2,0.6-0.3,1-0.3c0.4,0,0.8,0.1,1,0.3c0.2,0.2,0.4,0.6,0.4,1.1v21.8c0,0.5-0.1,0.9-0.4,1.1
					c-0.2,0.2-0.6,0.3-1,0.3c-0.4,0-0.8-0.1-1-0.3c-0.2-0.2-0.3-0.6-0.3-1.1V51.4z"/>
				<path d="M77,53c-0.1-0.3-0.2-0.5-0.3-0.8c-0.1-0.3-0.2-0.6-0.2-0.9c0-0.4,0.2-0.7,0.5-0.9c0.4-0.2,0.8-0.3,1.2-0.3
					c0.5,0,0.8,0.3,1.1,1l8,20.3L95.8,51c0.2-0.3,0.3-0.6,0.5-0.8c0.2-0.2,0.4-0.2,0.6-0.2c0.4,0,0.7,0.1,1.1,0.3
					c0.4,0.2,0.5,0.5,0.5,0.8c0,0.3-0.2,0.8-0.5,1.4l-9.1,21c-0.2,0.3-0.4,0.6-0.6,0.7c-0.3,0.2-0.7,0.3-1.2,0.3
					c-0.5,0-0.9-0.1-1.2-0.2c-0.3-0.2-0.4-0.4-0.5-0.6L77,53z"/>
				<path d="M123.6,61.5c0,0.4-0.1,0.7-0.4,0.9c-0.2,0.2-0.5,0.3-0.9,0.3h-17.8c0.1,3.2,0.8,5.6,2.3,7.4c1.4,1.7,3.5,2.6,6.2,2.6
					c1.1,0,2-0.1,2.7-0.4c0.7-0.2,1.4-0.5,1.9-0.9c0.5-0.4,1-0.8,1.3-1.2c0.3-0.4,0.7-0.8,0.9-1.2c0.2-0.3,0.4-0.4,0.5-0.6
					c0.1-0.1,0.3-0.2,0.6-0.2c0.3,0,0.6,0.1,1,0.3c0.3,0.2,0.5,0.5,0.5,0.8c0,0.4-0.2,0.8-0.5,1.2c-0.3,0.4-0.7,0.9-1.1,1.5
					c-0.5,0.5-1,1-1.8,1.5c-0.7,0.5-1.6,0.9-2.6,1.2c-1,0.3-2.1,0.5-3.4,0.5c-1.9,0-3.5-0.3-4.9-0.9c-1.4-0.6-2.6-1.5-3.6-2.6
					c-1-1.1-1.7-2.5-2.2-4c-0.5-1.6-0.7-3.3-0.7-5.2c0-1.8,0.3-3.6,0.8-5.1c0.5-1.6,1.3-2.9,2.3-4c1-1.1,2.2-2,3.6-2.6
					c1.4-0.6,2.9-1,4.6-1c1.7,0,3.3,0.3,4.6,0.9c1.3,0.6,2.5,1.5,3.4,2.5c0.9,1.1,1.6,2.3,2.1,3.8C123.4,58.3,123.6,59.8,123.6,61.5
					z M112.9,52c-1.3,0-2.4,0.2-3.4,0.7c-1,0.4-1.8,1-2.5,1.8c-0.7,0.8-1.2,1.7-1.6,2.7c-0.4,1-0.6,2.1-0.7,3.2h16.2
					c-0.1-1.1-0.3-2.2-0.7-3.2c-0.4-1-0.9-1.9-1.5-2.6c-0.7-0.8-1.5-1.4-2.4-1.8C115.3,52.3,114.2,52,112.9,52z"/>
				<path d="M131.9,73.2c0,0.5-0.1,0.9-0.4,1.1c-0.3,0.2-0.6,0.3-1,0.3c-0.4,0-0.7-0.1-1-0.3c-0.2-0.2-0.4-0.6-0.4-1.1V51.4
					c0-0.5,0.1-0.8,0.3-1c0.2-0.2,0.5-0.3,0.9-0.3c0.4,0,0.7,0.1,1,0.3c0.2,0.2,0.4,0.5,0.4,1v4.5c0.5-1.1,1.1-2,1.7-2.8
					c0.7-0.8,1.4-1.4,2.1-1.8c0.7-0.5,1.5-0.8,2.2-1c0.7-0.2,1.4-0.3,2.1-0.3c0.7,0,1.1,0.1,1.4,0.4c0.3,0.3,0.4,0.7,0.4,1.2
					c0,0.6-0.1,1-0.4,1.2c-0.3,0.2-0.6,0.4-1.1,0.4c-2.6,0-4.6,0.9-6.1,2.6c-1.5,1.7-2.2,4.2-2.2,7.5V73.2z"/>
				<path d="M152.1,83.4c-0.3,0.7-0.7,1-1.2,1c-0.4,0-0.7-0.1-1-0.3c-0.3-0.2-0.4-0.5-0.4-0.9c0-0.3,0.1-0.7,0.3-1.2l3.6-8
					l-9.1-21.6c-0.1-0.2-0.1-0.3-0.2-0.5c-0.1-0.2-0.1-0.4-0.1-0.6c0-0.4,0.2-0.7,0.5-0.9c0.4-0.2,0.8-0.3,1.2-0.3
					c0.4,0,0.8,0.4,1,1l8.1,19.4l8.4-19.5c0.3-0.7,0.6-1,1-1c0.4,0,0.8,0.1,1.1,0.3c0.4,0.2,0.5,0.5,0.5,0.8c0,0.1,0,0.3-0.1,0.5
					c-0.1,0.2-0.1,0.4-0.2,0.6L152.1,83.4z"/>
				<path d="M300.4,51.2L292.9,72c-0.3,0.8-0.7,1.4-1.4,1.7c-0.6,0.3-1.3,0.5-2.1,0.5c-1.1,0-2-0.2-2.6-0.7c-0.6-0.5-1-1.1-1.3-1.9
					l-7.1-18.9V72c0,0.7-0.2,1.4-0.7,1.9c-0.5,0.5-1.3,0.8-2.6,0.8c-1.2,0-2-0.2-2.5-0.7c-0.5-0.4-0.7-1.2-0.7-2.1V44.3
					c0-1.2,0.4-2,1.2-2.5c0.8-0.5,1.9-0.8,3.2-0.8c1.4,0,2.5,0.3,3.2,0.8c0.7,0.5,1.3,1.3,1.6,2.2l8.2,23.4l7.8-23.2
					c0.4-1.1,1-2,1.8-2.5c0.8-0.5,2-0.7,3.5-0.7c1.3,0,2.4,0.2,3.1,0.7c0.8,0.5,1.1,1.2,1.1,2.3V72c0,0.7-0.2,1.4-0.7,1.9
					c-0.5,0.5-1.3,0.8-2.6,0.8c-1.1,0-2-0.2-2.4-0.7c-0.5-0.5-0.7-1.2-0.7-2.1V51.2z"/>
				<path d="M334.6,72c0,0.9-0.2,1.6-0.7,2c-0.5,0.4-1.2,0.6-2.4,0.6c-1,0-1.7-0.2-2.3-0.6c-0.6-0.4-0.8-1.1-0.8-2v-0.9
					c-0.4,0.4-0.7,0.9-1.2,1.3c-0.4,0.4-1,0.8-1.6,1.2c-0.6,0.4-1.3,0.6-2.2,0.9c-0.8,0.2-1.8,0.3-2.9,0.3c-2.5,0-4.5-0.7-5.9-2
					c-1.4-1.3-2.2-3.1-2.2-5.3c0-1.3,0.2-2.4,0.6-3.2c0.4-0.9,1-1.6,1.8-2.2c0.7-0.6,1.6-1.1,2.6-1.4c1-0.3,2.1-0.6,3.2-0.8
					c1.2-0.2,2.4-0.4,3.6-0.5c1.2-0.1,2.6-0.2,4-0.3v-0.9c0-0.5-0.1-0.9-0.2-1.4c-0.1-0.5-0.3-0.9-0.6-1.3c-0.3-0.4-0.7-0.7-1.3-0.9
					c-0.5-0.2-1.2-0.3-2-0.3c-0.5,0-1,0-1.4,0.1c-0.4,0.1-0.8,0.2-1.2,0.3c-0.4,0.1-0.8,0.3-1.2,0.6c-0.4,0.3-0.9,0.6-1.5,0.9
					c-0.4,0.3-0.8,0.5-1.2,0.7c-0.4,0.2-0.8,0.3-1.4,0.3c-0.7,0-1.4-0.3-2-0.8c-0.6-0.6-0.9-1.2-0.9-2c0-0.5,0.2-1.1,0.7-1.7
					c0.4-0.6,1.1-1.2,2-1.7s2-1,3.3-1.3c1.3-0.3,2.9-0.5,4.6-0.5c3.7,0,6.3,0.7,7.9,2.1c1.6,1.4,2.4,3.7,2.4,6.7V72z M328.4,63
					c-1.2,0.1-2.4,0.3-3.5,0.4c-1.1,0.2-1.9,0.3-2.5,0.4c-1.5,0.3-2.5,0.8-3,1.4c-0.5,0.6-0.7,1.2-0.7,1.8c0,0.8,0.3,1.5,0.8,1.9
					c0.5,0.5,1.4,0.7,2.6,0.7c2,0,3.5-0.5,4.6-1.4c1.1-0.9,1.6-2.1,1.6-3.5V63z"/>
				<path d="M348.6,75.1c-2.1,0-3.8-0.6-5-1.7c-1.2-1.1-1.9-2.9-1.9-5.3V54.6h-2c-0.5,0-0.9-0.3-1.2-0.9c-0.3-0.6-0.4-1.1-0.4-1.7
					c0-0.6,0.1-1.1,0.4-1.6c0.2-0.5,0.6-0.7,1.2-0.7h2.1v-4.5c0-0.6,0.1-1.1,0.4-1.5c0.3-0.4,0.6-0.7,1-1c0.4-0.2,0.9-0.4,1.4-0.5
					c0.5-0.1,1-0.2,1.5-0.2c0.8,0,1.4,0.2,1.7,0.6c0.3,0.4,0.5,0.9,0.5,1.5v5.5h3.9c0.6,0,1.1,0.2,1.3,0.7c0.3,0.5,0.4,1,0.4,1.6
					c0,1.7-0.6,2.5-1.8,2.5h-3.9v12.7c0,0.7,0.1,1.2,0.4,1.5c0.3,0.3,0.7,0.5,1.3,0.5c0.4,0,0.7-0.1,1-0.2c0.3-0.1,0.6-0.2,0.8-0.3
					l0.8-0.3c0.3-0.1,0.5-0.2,0.9-0.2c0.8,0,1.4,0.3,1.8,1c0.4,0.6,0.5,1.3,0.5,2.1c0,0.5-0.1,1-0.3,1.4c-0.2,0.4-0.5,0.7-0.9,1
					c-0.6,0.4-1.4,0.7-2.4,1C351.1,75,349.9,75.1,348.6,75.1z"/>
				<path d="M370,49c3.5,0,6.2,1.1,8.3,3.2c2,2.1,3.1,5.2,3.1,9.2c0,0.9-0.3,1.6-0.8,1.9c-0.6,0.4-1.3,0.5-2.4,0.5h-13.8
					c0.3,3.9,2.4,5.9,6.3,5.9c1,0,1.9-0.2,2.6-0.5c0.7-0.3,1.3-0.6,1.8-0.9c0.5-0.3,0.9-0.5,1.3-0.8c0.4-0.3,0.9-0.4,1.5-0.4
					c0.6,0,1.2,0.3,1.8,1c0.5,0.6,0.8,1.4,0.8,2.1c0,0.6-0.2,1.1-0.5,1.5c-0.3,0.4-0.9,0.9-1.6,1.4c-1,0.6-2.2,1.1-3.6,1.5
					c-1.4,0.3-2.8,0.5-4.2,0.5c-2,0-3.8-0.3-5.4-0.8c-1.6-0.5-3-1.3-4.1-2.3c-1.1-1-2-2.4-2.6-4c-0.6-1.6-0.9-3.5-0.9-5.7
					c0-1.7,0.2-3.3,0.7-4.9c0.5-1.6,1.2-3,2.2-4.3c1-1.2,2.3-2.2,3.9-3C366,49.4,367.9,49,370,49z M374.7,58.9
					c0-0.6-0.1-1.1-0.3-1.7c-0.2-0.6-0.5-1.1-0.9-1.6c-0.4-0.5-0.9-0.9-1.5-1.1c-0.6-0.3-1.3-0.4-2.2-0.4c-1.4,0-2.6,0.4-3.6,1.2
					c-1,0.8-1.6,2-1.7,3.6H374.7z"/>
				<path d="M405.8,67.1c0,2.7-1,4.7-2.9,6c-1.9,1.3-4.6,2-7.9,2c-1.9,0-3.6-0.2-5.1-0.7c-1.5-0.4-2.7-1-3.6-1.7
					c-0.4-0.3-0.7-0.6-0.9-1c-0.2-0.4-0.3-0.7-0.3-1.1c0-0.6,0.2-1.2,0.5-1.8c0.3-0.5,0.6-0.9,1-1.2c0.4-0.3,0.9-0.5,1.4-0.5
					c0.5,0,0.9,0.1,1.4,0.4c0.4,0.3,0.9,0.6,1.5,1c0.6,0.4,1.2,0.7,1.9,1c0.7,0.3,1.7,0.4,2.8,0.4c1.4,0,2.4-0.2,3-0.7
					c0.6-0.4,0.9-1,0.9-1.8c0-0.6-0.2-1.1-0.6-1.6c-0.4-0.5-1.3-0.8-2.6-1l-2.9-0.5c-1.2-0.2-2.2-0.5-3.2-0.8
					c-1-0.4-1.8-0.8-2.5-1.4c-0.7-0.6-1.2-1.3-1.6-2.1c-0.4-0.8-0.6-1.9-0.6-3.1c0-1.3,0.3-2.4,0.8-3.4c0.5-1,1.2-1.8,2.1-2.5
					c0.9-0.7,2-1.2,3.3-1.5c1.3-0.3,2.7-0.5,4.2-0.5c2.2,0,4,0.3,5.4,0.8c1.4,0.5,2.4,1.1,3.1,1.6c0.4,0.4,0.7,0.7,0.9,1
					c0.2,0.4,0.2,0.7,0.2,1c0,0.8-0.2,1.4-0.6,2c-0.3,0.3-0.5,0.6-0.8,0.7c-0.3,0.2-0.6,0.3-1,0.3c-0.4,0-0.7-0.1-1.1-0.2
					c-0.4-0.1-0.7-0.3-0.9-0.5c-0.9-0.5-1.7-0.9-2.5-1.2c-0.8-0.3-1.8-0.5-3.1-0.5c-1.2,0-2.2,0.2-2.7,0.6c-0.6,0.4-0.9,1-0.9,1.6
					c0,0.6,0.2,1.1,0.6,1.5c0.4,0.4,1.4,0.8,2.8,1l2.5,0.5c2.9,0.5,5,1.4,6.3,2.6C405.1,63,405.8,64.8,405.8,67.1z"/>
			</g>
		</g>
	</g>
</g>
</svg>
