<?xml version="1.0" encoding="utf-8"?>
<!-- Generator: Adobe Illustrator 19.1.0, SVG Export Plug-In . SVG Version: 6.00 Build 0)  -->
<svg version="1.1" id="Camada_1" xmlns="http://www.w3.org/2000/svg" xmlns:xlink="http://www.w3.org/1999/xlink" x="0px" y="0px"
	 viewBox="0 0 37 41.7" style="enable-background:new 0 0 37 41.7;" xml:space="preserve">
<style type="text/css">
	.st0{fill-rule:evenodd;clip-rule:evenodd;fill:#509D37;}
	.st1{fill-rule:evenodd;clip-rule:evenodd;fill:#2A3D48;}
	.st2{fill:#FFFFFF;}
	.st3{fill:#509D37;}
	.st4{fill-rule:evenodd;clip-rule:evenodd;fill:#FFFFFF;}
	.st5{fill:#EDEDED;}
	.st6{fill:#2B7FB2;}
	.st7{fill:#3B8C30;}
	.st8{opacity:0.1;fill:none;stroke:#000000;stroke-miterlimit:10;}
	.st9{fill:#D83D3D;}
	.st10{fill:#7A5DA8;}
	.st11{fill:#E29942;}
	.st12{fill:#333333;}
	.st13{opacity:0.1;}
	.st14{fill:#18B1BF;}
	.st15{opacity:0.1;fill-rule:evenodd;clip-rule:evenodd;}
	.st16{fill-rule:evenodd;clip-rule:evenodd;fill:#D83D3D;}
	.st17{clip-path:url(#SVGID_2_);}
	.st18{clip-path:url(#SVGID_4_);}
	.st19{clip-path:url(#SVGID_4_);fill-rule:evenodd;clip-rule:evenodd;}
	.st20{opacity:0.1;fill:#090A09;}
</style>
<g>
	<g>
		<path class="st12" d="M30.8,6.1c-3.1-3.1-7.4-5-12.1-5c-4.7,0-9,1.9-12.1,5c-3.1,3.1-5,7.4-5,12.1c0,3.6,1.1,6.9,3,9.7
			c1.9,2.7,4.5,4.9,7.6,6.2l5.4,5.6l0,0l0,0c0.6,0.6,1.5,0.6,2.1,0l5.5-5.6c3.1-1.3,5.8-3.5,7.6-6.2c1.9-2.8,3-6.1,3-9.7
			C35.8,13.5,33.9,9.2,30.8,6.1L30.8,6.1z"/>
	</g>
	<g class="st13">
		<path d="M18.5,41.7c-0.7,0-1.4-0.3-2-0.8l-5.3-5.4c-3.2-1.4-6-3.7-8-6.6C1.1,25.8,0,22.2,0,18.5c0-4.9,1.9-9.6,5.4-13.1
			C8.9,1.9,13.6,0,18.5,0c4.9,0,9.6,1.9,13.1,5.4c3.5,3.5,5.4,8.1,5.4,13.1c0,3.7-1.1,7.3-3.2,10.4c-2,2.9-4.7,5.2-8,6.6l-5.3,5.4
			C20,41.4,19.2,41.7,18.5,41.7z M18.5,2.7c-4.2,0-8.2,1.6-11.2,4.6c-3,3-4.6,7-4.6,11.2c0,3.2,1,6.3,2.8,8.9c1.7,2.6,4.2,4.5,7,5.7
			l0.4,0.3l5.4,5.6l6.1-5.9c2.9-1.2,5.3-3.2,7-5.7c1.8-2.6,2.8-5.7,2.8-8.9c0-4.2-1.6-8.2-4.6-11.2l0,0C26.7,4.3,22.7,2.7,18.5,2.7z
			"/>
	</g>
	<g class="st13">
		<g>
			<path d="M27.4,18.6l-1.2-3.4l-1.8-5C24.3,10,24,9.8,23.7,9.9c-5.9-0.8-6.3,3.4-10.5,3.7l-0.4-1.3c-0.1-0.4-0.6-0.6-1-0.4
				c-0.4,0.1-0.6,0.6-0.5,1l0.4,1.3l2.1,5.8l3.4,9.4c0.1,0.4,0.6,0.6,1,0.4c0.4-0.1,0.6-0.6,0.5-1l-2.2-6l0,0
				c4.1-0.5,4.5-4.1,10.5-3.7C27.3,19.1,27.4,18.8,27.4,18.6z M24.3,18.1l-0.6-1.6l-1.4,0.5l0.5,1.5c-0.5,0.1-0.9,0.3-1.3,0.5
				l-0.5-1.2l-1.2,0.8l0.4,1.2c-0.4,0.3-0.9,0.6-1.3,0.9l-0.5-1.3c-0.5,0.3-0.9,0.5-1.3,0.6l0,0c0,0,0,0,0,0l0,0c0,0,0,0,0,0
				l0.5,1.4c-0.5,0.2-1.1,0.4-1.7,0.3l-0.5-1.3c0.8-0.1,1.2-0.2,1.6-0.3c0,0,0,0,0.1,0l-0.5-1.3c0.5-0.2,0.9-0.4,1.3-0.6l-0.5-1.2
				c-0.5,0.3-0.9,0.5-1.3,0.6l0.5,1.3c-0.5,0.2-1.1,0.3-1.6,0.3l-0.4-1.2c0.6-0.1,1.1-0.2,1.6-0.4l-0.5-1.3
				c-0.5,0.2-1.1,0.3-1.6,0.3l-0.4-1.1c0.6-0.1,1.1-0.3,1.6-0.5l0.5,1.3c0.5-0.2,0.9-0.3,1.3-0.6L16.6,14c0.5-0.3,0.9-0.6,1.3-0.9
				l0.5,1.4l1.2-0.8l0.5,1.4c0.5-0.3,0.9-0.5,1.3-0.7l-0.5-1.4c-0.4,0.2-0.9,0.4-1.3,0.7l0,0l-0.5-1.4c0.4-0.2,0.8-0.4,1.3-0.6
				l0.5,1.4c0.4-0.2,0.9-0.4,1.4-0.5l-0.4-1.2c0.5,0,0.9,0,1.5,0l0.4,1.2c-0.5-0.1-1-0.1-1.5,0l0.5,1.3c0.5-0.1,1-0.1,1.5,0.1
				l0.4,1.2c-0.5-0.1-1-0.1-1.5,0l0.5,1.3c0.5,0,1-0.1,1.5,0.1l0.5,1.4C25.2,18,24.8,18,24.3,18.1z"/>
		</g>
		<g>
			<path d="M21.8,15.5c-0.4,0.2-0.9,0.4-1.3,0.7l0.5,1.4c0,0,0,0,0,0c0.4-0.3,0.8-0.5,1.2-0.7L21.8,15.5c0.4-0.2,0.9-0.3,1.4-0.4
				c0,0,0,0,0,0l0,0l-0.5-1.3l-1.4,0.5L21.8,15.5z"/>
		</g>
		<g>
			<path d="M17.2,19.9C17.2,19.9,17.2,19.9,17.2,19.9C17.1,19.9,17.1,19.9,17.2,19.9z"/>
		</g>
		<g>
			<path d="M19.4,17l1.2-0.8L20.1,15l-1.2,0.8L19.4,17c-0.4,0.3-0.9,0.6-1.3,0.8c0,0,0,0,0,0l0.5,1.4l1.3-0.8L19.4,17z"/>
		</g>
		<g>
			<path d="M18.9,15.8l-0.5-1.4c-0.4,0.3-0.9,0.6-1.3,0.9l0.5,1.4C18,16.4,18.5,16.1,18.9,15.8z"/>
		</g>
	</g>
	<g>
		<g>
			<path class="st2" d="M26.1,17.9l-1.2-3.4l-1.8-5c-0.1-0.2-0.3-0.3-0.6-0.3C16.6,8.4,16.2,12.6,12,13l-0.4-1.3
				c-0.1-0.4-0.6-0.6-1-0.4c-0.4,0.1-0.6,0.6-0.5,1l0.4,1.3l2.1,5.8l3.4,9.4c0.1,0.4,0.6,0.6,1,0.4c0.4-0.1,0.6-0.6,0.5-1l-2.2-6
				l0,0c4.1-0.5,4.5-4.1,10.5-3.7C26.1,18.4,26.2,18.1,26.1,17.9z M23.1,17.3l-0.6-1.6l-1.4,0.5l0.5,1.5c-0.5,0.1-0.9,0.3-1.3,0.5
				l-0.5-1.2l-1.2,0.8l0.4,1.2c-0.4,0.3-0.9,0.6-1.3,0.9l-0.5-1.3c-0.5,0.3-0.9,0.5-1.3,0.6l0,0c0,0,0,0,0,0l0,0c0,0,0,0,0,0
				l0.5,1.4c-0.5,0.2-1.1,0.4-1.7,0.3l-0.5-1.3c0.8-0.1,1.2-0.2,1.6-0.3c0,0,0,0,0.1,0l-0.5-1.3c0.5-0.2,0.9-0.4,1.3-0.6L16.4,16
				c-0.5,0.3-0.9,0.5-1.3,0.6l0.5,1.3c-0.5,0.2-1.1,0.3-1.6,0.3l-0.4-1.2c0.6-0.1,1.1-0.2,1.6-0.4l-0.5-1.3
				c-0.5,0.2-1.1,0.3-1.6,0.3l-0.4-1.1c0.6-0.1,1.1-0.3,1.6-0.5l0.5,1.3c0.5-0.2,0.9-0.3,1.3-0.6l-0.5-1.3c0.5-0.3,0.9-0.6,1.3-0.9
				l0.5,1.4l1.2-0.8l0.5,1.4c0.5-0.3,0.9-0.5,1.3-0.7l-0.5-1.4c-0.4,0.2-0.9,0.4-1.3,0.7l0,0l-0.5-1.4c0.4-0.2,0.8-0.4,1.3-0.6
				l0.5,1.4c0.4-0.2,0.9-0.4,1.4-0.5l-0.4-1.2c0.5,0,0.9,0,1.5,0l0.4,1.2c-0.5-0.1-1-0.1-1.5,0l0.5,1.3c0.5-0.1,1-0.1,1.5,0.1
				l0.4,1.2c-0.5-0.1-1-0.1-1.5,0l0.5,1.3c0.5,0,1-0.1,1.5,0.1l0.5,1.4C24,17.3,23.5,17.3,23.1,17.3z"/>
		</g>
		<g>
			<path class="st2" d="M20.6,14.8c-0.4,0.2-0.9,0.4-1.3,0.7l0.5,1.4c0,0,0,0,0,0c0.4-0.3,0.8-0.5,1.2-0.7L20.6,14.8
				c0.4-0.2,0.9-0.3,1.4-0.4c0,0,0,0,0,0l0,0l-0.5-1.3l-1.4,0.5L20.6,14.8z"/>
		</g>
		<g>
			<path class="st2" d="M16,19.2C16,19.2,15.9,19.2,16,19.2C15.8,19.2,15.8,19.2,16,19.2z"/>
		</g>
		<g>
			<path class="st2" d="M18.1,16.3l1.2-0.8l-0.5-1.2l-1.2,0.8L18.1,16.3c-0.4,0.3-0.9,0.6-1.3,0.8c0,0,0,0,0,0l0.5,1.4l1.3-0.8
				L18.1,16.3z"/>
		</g>
		<g>
			<path class="st2" d="M17.7,15.1l-0.5-1.4c-0.4,0.3-0.9,0.6-1.3,0.9l0.5,1.4C16.8,15.7,17.2,15.4,17.7,15.1z"/>
		</g>
	</g>
</g>
</svg>
