<?xml version="1.0" encoding="utf-8"?>
<!-- Generator: Adobe Illustrator 19.1.0, SVG Export Plug-In . SVG Version: 6.00 Build 0)  -->
<svg version="1.1" id="Camada_1" xmlns="http://www.w3.org/2000/svg" xmlns:xlink="http://www.w3.org/1999/xlink" x="0px" y="0px"
	 viewBox="-171 300.3 37 41.7" style="enable-background:new -171 300.3 37 41.7;" xml:space="preserve">
<style type="text/css">
	.st0{fill:#13A4E8;}
	.st1{opacity:0.1;}
	.st2{fill:#FFFFFF;}
</style>
<g>
	<g>
		<path class="st0" d="M-140.2,306.4c-3.1-3.1-7.4-5-12.1-5s-9,1.9-12.1,5c-3.1,3.1-5,7.4-5,12.1c0,3.6,1.1,6.9,3,9.7
			c1.9,2.7,4.5,4.9,7.6,6.2l5.4,5.6l0,0l0,0c0.6,0.6,1.5,0.6,2.1,0l5.5-5.6c3.1-1.3,5.8-3.5,7.6-6.2c1.9-2.8,3-6.1,3-9.7
			C-135.2,313.8-137.1,309.5-140.2,306.4L-140.2,306.4z"/>
	</g>
	<g class="st1">
		<path d="M-152.5,342c-0.7,0-1.4-0.3-2-0.8l-5.3-5.4c-3.2-1.4-6-3.7-8-6.6c-2.1-3.1-3.2-6.7-3.2-10.4c0-4.9,1.9-9.6,5.4-13.1
			s8.2-5.4,13.1-5.4s9.6,1.9,13.1,5.4s5.4,8.1,5.4,13.1c0,3.7-1.1,7.3-3.2,10.4c-2,2.9-4.7,5.2-8,6.6l-5.3,5.4
			C-151,341.7-151.8,342-152.5,342z M-152.5,303c-4.2,0-8.2,1.6-11.2,4.6s-4.6,7-4.6,11.2c0,3.2,1,6.3,2.8,8.9
			c1.7,2.6,4.2,4.5,7,5.7l0.4,0.3l5.4,5.6l6.1-5.9c2.9-1.2,5.3-3.2,7-5.7c1.8-2.6,2.8-5.7,2.8-8.9c0-4.2-1.6-8.2-4.6-11.2l0,0
			C-144.3,304.6-148.3,303-152.5,303z"/>
	</g>
	<g class="st1">
		<g>
			<path d="M-143.6,318.9l-1.2-3.4l-1.8-5c-0.1-0.2-0.4-0.4-0.7-0.3c-5.9-0.8-6.3,3.4-10.5,3.7l-0.4-1.3c-0.1-0.4-0.6-0.6-1-0.4
				c-0.4,0.1-0.6,0.6-0.5,1l0.4,1.3l2.1,5.8l3.4,9.4c0.1,0.4,0.6,0.6,1,0.4c0.4-0.1,0.6-0.6,0.5-1l-2.2-6l0,0
				c4.1-0.5,4.5-4.1,10.5-3.7C-143.7,319.4-143.6,319.1-143.6,318.9z M-146.7,318.4l-0.6-1.6l-1.4,0.5l0.5,1.5
				c-0.5,0.1-0.9,0.3-1.3,0.5l-0.5-1.2l-1.2,0.8l0.4,1.2c-0.4,0.3-0.9,0.6-1.3,0.9l-0.5-1.3c-0.5,0.3-0.9,0.5-1.3,0.6l0,0l0,0l0,0
				l0,0l0.5,1.4c-0.5,0.2-1.1,0.4-1.7,0.3l-0.5-1.3c0.8-0.1,1.2-0.2,1.6-0.3c0,0,0,0,0.1,0l-0.5-1.3c0.5-0.2,0.9-0.4,1.3-0.6
				l-0.5-1.2c-0.5,0.3-0.9,0.5-1.3,0.6l0.5,1.3c-0.5,0.2-1.1,0.3-1.6,0.3l-0.4-1.2c0.6-0.1,1.1-0.2,1.6-0.4l-0.5-1.3
				c-0.5,0.2-1.1,0.3-1.6,0.3l-0.4-1.1c0.6-0.1,1.1-0.3,1.6-0.5l0.5,1.3c0.5-0.2,0.9-0.3,1.3-0.6l-0.5-1.7c0.5-0.3,0.9-0.6,1.3-0.9
				l0.5,1.4l1.2-0.8l0.5,1.4c0.5-0.3,0.9-0.5,1.3-0.7l-0.5-1.4c-0.4,0.2-0.9,0.4-1.3,0.7l0,0l-0.5-1.4c0.4-0.2,0.8-0.4,1.3-0.6
				l0.5,1.4c0.4-0.2,0.9-0.4,1.4-0.5l-0.4-1.2c0.5,0,0.9,0,1.5,0l0.4,1.2c-0.5-0.1-1-0.1-1.5,0l0.5,1.3c0.5-0.1,1-0.1,1.5,0.1
				l0.4,1.2c-0.5-0.1-1-0.1-1.5,0l0.5,1.3c0.5,0,1-0.1,1.5,0.1l0.5,1.4C-145.8,318.3-146.2,318.3-146.7,318.4z"/>
		</g>
		<g>
			<path d="M-149.2,315.8c-0.4,0.2-0.9,0.4-1.3,0.7l0.5,1.4l0,0c0.4-0.3,0.8-0.5,1.2-0.7L-149.2,315.8c0.4-0.2,0.9-0.3,1.4-0.4l0,0
				l0,0l-0.5-1.3l-1.4,0.5L-149.2,315.8z"/>
		</g>
		<g>
			<path d="M-153.8,320.2L-153.8,320.2C-153.9,320.2-153.9,320.2-153.8,320.2z"/>
		</g>
		<g>
			<path d="M-151.6,317.3l1.2-0.8l-0.5-1.2l-1.2,0.8L-151.6,317.3c-0.4,0.3-0.9,0.6-1.3,0.8l0,0l0.5,1.4l1.3-0.8L-151.6,317.3z"/>
		</g>
		<g>
			<path d="M-152.1,316.1l-0.5-1.4c-0.4,0.3-0.9,0.6-1.3,0.9l0.5,1.4C-153,316.7-152.5,316.4-152.1,316.1z"/>
		</g>
	</g>
	<g>
		<g>
			<path class="st2" d="M-144.9,318.2l-1.2-3.4l-1.8-5c-0.1-0.2-0.3-0.3-0.6-0.3c-5.9-0.8-6.3,3.4-10.5,3.8l-0.4-1.3
				c-0.1-0.4-0.6-0.6-1-0.4c-0.4,0.1-0.6,0.6-0.5,1l0.4,1.3l2.1,5.8l3.4,9.4c0.1,0.4,0.6,0.6,1,0.4c0.4-0.1,0.6-0.6,0.5-1l-2.2-6
				l0,0c4.1-0.5,4.5-4.1,10.5-3.7C-144.9,318.7-144.8,318.4-144.9,318.2z M-147.9,317.6l-0.6-1.6l-1.4,0.5l0.5,1.5
				c-0.5,0.1-0.9,0.3-1.3,0.5l-0.5-1.2l-1.2,0.8l0.4,1.2c-0.4,0.3-0.9,0.6-1.3,0.9l-0.5-1.3c-0.5,0.3-0.9,0.5-1.3,0.6l0,0l0,0l0,0
				l0,0l0.5,1.4c-0.5,0.2-1.1,0.4-1.7,0.3l-0.5-1.3c0.8-0.1,1.2-0.2,1.6-0.3c0,0,0,0,0.1,0l-0.5-1.3c0.5-0.2,0.9-0.4,1.3-0.6
				l-0.3-1.4c-0.5,0.3-0.9,0.5-1.3,0.6l0.5,1.3c-0.5,0.2-1.1,0.3-1.6,0.3l-0.4-1.2c0.6-0.1,1.1-0.2,1.6-0.4l-0.5-1.3
				c-0.5,0.2-1.1,0.3-1.6,0.3l-0.4-1.1c0.6-0.1,1.1-0.3,1.6-0.5l0.5,1.3c0.5-0.2,0.9-0.3,1.3-0.6l-0.5-1.3c0.5-0.3,0.9-0.6,1.3-0.9
				l0.5,1.4l1.2-0.8l0.5,1.4c0.5-0.3,0.9-0.5,1.3-0.7l-0.5-1.4c-0.4,0.2-0.9,0.4-1.3,0.7l0,0l-0.5-1.4c0.4-0.2,0.8-0.4,1.3-0.6
				l0.5,1.4c0.4-0.2,0.9-0.4,1.4-0.5l-0.4-1.2c0.5,0,0.9,0,1.5,0l0.4,1.2c-0.5-0.1-1-0.1-1.5,0l0.5,1.3c0.5-0.1,1-0.1,1.5,0.1
				l0.4,1.2c-0.5-0.1-1-0.1-1.5,0l0.5,1.3c0.5,0,1-0.1,1.5,0.1l0.5,1.4C-147,317.6-147.5,317.6-147.9,317.6z"/>
		</g>
		<g>
			<path class="st2" d="M-150.4,315.1c-0.4,0.2-0.9,0.4-1.3,0.7l0.5,1.4l0,0c0.4-0.3,0.8-0.5,1.2-0.7L-150.4,315.1
				c0.4-0.2,0.9-0.3,1.4-0.4l0,0l0,0l-0.5-1.3l-1.4,0.5L-150.4,315.1z"/>
		</g>
		<g>
			<path class="st2" d="M-155,319.5C-155,319.5-155.1,319.5-155,319.5C-155.2,319.5-155.2,319.5-155,319.5z"/>
		</g>
		<g>
			<path class="st2" d="M-152.9,316.6l1.2-0.8l-0.5-1.2l-1.2,0.8L-152.9,316.6c-0.4,0.3-0.9,0.6-1.3,0.8l0,0l0.5,1.4l1.3-0.8
				L-152.9,316.6z"/>
		</g>
		<g>
			<path class="st2" d="M-153.3,315.4l-0.5-1.4c-0.4,0.3-0.9,0.6-1.3,0.9l0.5,1.4C-154.2,316-153.8,315.7-153.3,315.4z"/>
		</g>
	</g>
</g>
</svg>
