<?xml version="1.0" encoding="utf-8"?>
<!-- Generator: Adobe Illustrator 19.2.1, SVG Export Plug-In . SVG Version: 6.00 Build 0)  -->
<svg version="1.1" id="Camada_1" xmlns="http://www.w3.org/2000/svg" xmlns:xlink="http://www.w3.org/1999/xlink" x="0px" y="0px"
	 viewBox="0 0 37 41.7" style="enable-background:new 0 0 37 41.7;" xml:space="preserve">
<style type="text/css">
	.st0{fill:#E13E3E;}
	.st1{opacity:0.1;}
	.st2{opacity:0.2;}
	.st3{fill:#020202;}
	.st4{fill:#FFFFFF;}
</style>
<g>
	<g>
		<path class="st0" d="M30.8,6.1c-3.1-3.1-7.4-5-12.1-5s-9,1.9-12.1,5s-5,7.4-5,12.1c0,3.6,1.1,6.9,3,9.7c1.9,2.7,4.5,4.9,7.6,6.2
			l5.4,5.6l0,0l0,0c0.6,0.6,1.5,0.6,2.1,0l5.5-5.6c3.1-1.3,5.8-3.5,7.6-6.2c1.9-2.8,3-6.1,3-9.7C35.8,13.5,33.9,9.2,30.8,6.1
			L30.8,6.1z"/>
	</g>
	<g class="st1">
		<path d="M18.5,41.7c-0.7,0-1.4-0.3-2-0.8l-5.3-5.4c-3.2-1.4-6-3.7-8-6.6C1.1,25.8,0,22.2,0,18.5c0-4.9,1.9-9.6,5.4-13.1
			S13.6,0,18.5,0s9.6,1.9,13.1,5.4S37,13.5,37,18.5c0,3.7-1.1,7.3-3.2,10.4c-2,2.9-4.7,5.2-8,6.6l-5.3,5.4
			C20,41.4,19.2,41.7,18.5,41.7z M18.5,2.7c-4.2,0-8.2,1.6-11.2,4.6s-4.6,7-4.6,11.2c0,3.2,1,6.3,2.8,8.9c1.7,2.6,4.2,4.5,7,5.7
			l0.4,0.3l5.4,5.6l6.1-5.9c2.9-1.2,5.3-3.2,7-5.7c1.8-2.6,2.8-5.7,2.8-8.9c0-4.2-1.6-8.2-4.6-11.2l0,0C26.7,4.3,22.7,2.7,18.5,2.7z
			"/>
	</g>
</g>
<g class="st2">
	<path class="st3" d="M27.5,12.7c0.3,0.3,0.4,0.6,0.4,1.1v11.3c0,0.5-0.2,0.9-0.5,1.3S26.6,27,26.1,27H13.5c-0.5,0-0.9-0.2-1.3-0.5
		s-0.5-0.8-0.5-1.3V13.9c0-0.5,0.1-0.9,0.4-1.1l1.3-1.5c0.3-0.3,0.6-0.5,1-0.5h10.9c0.4,0,0.8,0.2,1,0.5L27.5,12.7z M13.6,12.5H26
		l-0.9-0.9H14.3L13.6,12.5z M19.8,23.8l5-5h-3.2V17H18v1.8h-3.2L19.8,23.8z"/>
</g>
<g>
	<path class="st4" d="M25.5,11.7c0.3,0.3,0.4,0.6,0.4,1.1v11.3c0,0.5-0.2,0.9-0.5,1.3S24.6,26,24.1,26H11.5c-0.5,0-0.9-0.2-1.3-0.5
		s-0.5-0.8-0.5-1.3V12.9c0-0.5,0.1-0.9,0.4-1.1l1.3-1.5c0.3-0.3,0.6-0.5,1-0.5h10.9c0.4,0,0.8,0.2,1,0.5L25.5,11.7z M11.6,11.5H24
		l-0.9-0.9H12.3L11.6,11.5z M17.8,22.8l5-5h-3.2V16H16v1.8h-3.2L17.8,22.8z"/>
</g>
</svg>
